<?xml version="1.0" standalone="no"?>
<!DOCTYPE svg PUBLIC "-//W3C//DTD SVG 20010904//EN"
 "http://www.w3.org/TR/2001/REC-SVG-20010904/DTD/svg10.dtd">
<svg version="1.0" xmlns="http://www.w3.org/2000/svg"
 width="735.000000pt" height="250.000000pt" viewBox="0 0 735.000000 250.000000"
 preserveAspectRatio="xMidYMid meet">

<g transform="translate(0.000000,250.000000) scale(0.100000,-0.100000)"
fill="#000000" stroke="none">
<path d="M5500 2105 c-80 -29 -269 -98 -420 -154 -228 -83 -280 -106 -303
-132 -16 -17 -26 -33 -23 -36 3 -3 80 22 173 55 92 33 283 101 423 151 221 78
259 95 283 123 27 32 34 49 20 47 -5 0 -73 -25 -153 -54z"/>
<path d="M6514 2100 l-21 -40 33 -182 c49 -268 84 -498 84 -550 l0 -45 -132
-32 c-174 -43 -175 -43 -187 -88 -23 -83 -35 -78 179 -78 124 -1 194 -5 201
-12 8 -8 0 -13 -31 -18 -23 -4 -73 -23 -111 -42 -77 -38 -115 -83 -125 -145
-4 -21 -9 -38 -12 -38 -3 0 -20 11 -38 25 -67 51 -99 136 -124 330 -17 125
-72 300 -136 433 -30 61 -58 112 -62 112 -4 0 -13 -27 -20 -59 -11 -54 -11
-62 8 -94 23 -39 112 -303 131 -389 12 -56 11 -58 -16 -99 -41 -59 -182 -199
-240 -239 -93 -64 -203 -95 -260 -74 -26 10 -45 59 -46 116 l0 53 -15 -45
c-19 -60 -20 -159 -3 -195 22 -44 64 -70 114 -70 55 0 205 74 291 144 72 58
147 153 182 231 l25 55 13 -64 c32 -152 122 -274 248 -336 67 -33 180 -64 192
-53 2 3 2 35 -2 71 l-7 65 -67 26 c-69 27 -110 57 -110 80 0 32 137 84 382
146 93 23 154 44 159 53 5 8 10 37 11 64 l3 48 -185 14 c-102 8 -186 15 -188
16 -1 1 6 17 15 36 29 55 22 198 -21 452 -44 265 -43 257 -11 227 14 -13 25
-18 25 -12 0 27 -92 242 -103 242 -2 0 -12 -18 -23 -40z"/>
<path d="M6988 2107 c-12 -25 -14 -44 -8 -78 14 -71 150 -1173 150 -1210 0
-59 17 -68 30 -18 23 81 -1 385 -65 839 -19 135 -35 256 -35 269 l0 24 25 -23
c14 -13 25 -20 25 -16 0 14 -80 212 -93 230 -12 16 -14 14 -29 -17z"/>
<path d="M1658 2103 c-8 -21 -7 -62 6 -168 22 -180 92 -675 111 -784 8 -46 12
-88 9 -93 -10 -15 -163 -87 -201 -94 -45 -8 -80 2 -97 29 -8 12 -24 81 -36
152 -26 152 -41 195 -69 195 -15 0 -23 -14 -40 -68 -23 -76 -58 -122 -93 -122
-13 0 -41 9 -63 20 -21 11 -39 19 -40 17 -1 -1 -7 -26 -12 -54 -8 -42 -7 -55
3 -64 25 -20 65 -117 73 -173 7 -54 7 -56 -28 -90 -111 -106 -331 -230 -475
-266 -96 -24 -213 -26 -286 -4 -39 12 -66 29 -105 67 -66 67 -80 114 -79 264
0 62 -3 110 -7 108 -14 -9 -33 -143 -33 -235 0 -164 48 -268 149 -319 46 -24
59 -26 175 -25 144 1 247 26 383 94 178 90 298 195 337 296 19 52 21 71 17
155 l-6 97 31 13 c32 13 67 74 68 116 0 12 4 24 9 27 16 10 41 -72 50 -164 11
-104 32 -155 75 -181 59 -36 147 -15 272 65 l68 44 16 -26 c43 -70 130 -121
186 -110 32 6 57 65 62 148 5 92 -11 132 -64 157 -35 17 -38 17 -145 -14 -21
-6 -31 24 -59 172 -21 118 -90 594 -90 628 0 20 1 20 25 -3 14 -13 25 -19 25
-13 0 33 -88 233 -102 233 -5 0 -13 -12 -20 -27z m357 -1124 c18 -17 18 -19 2
-19 -31 0 -89 29 -82 41 10 15 55 2 80 -22z"/>
<path d="M2875 2098 c-7 -18 -12 -36 -9 -39 2 -3 22 -143 44 -310 22 -167 54
-405 71 -528 l30 -224 -22 -24 c-23 -24 -103 -53 -146 -53 -27 0 -94 32 -111
53 -10 11 -2 19 40 42 28 16 66 31 82 35 24 4 36 16 53 50 29 60 29 65 -13 89
-113 67 -271 81 -412 36 -44 -14 -84 -31 -89 -38 -9 -12 -43 -97 -43 -109 0
-3 20 -3 45 0 56 6 96 -10 136 -56 30 -33 30 -36 13 -49 -33 -24 -124 -53
-167 -53 -100 0 -143 65 -157 242 -5 62 -14 178 -20 258 -22 268 -89 603 -133
664 -12 17 -15 13 -30 -39 l-16 -58 30 -86 c40 -114 62 -254 99 -622 18 -182
37 -329 47 -360 21 -64 84 -133 130 -142 55 -11 136 20 246 95 l57 39 48 -40
c56 -47 125 -81 167 -81 76 0 159 70 190 159 37 107 27 241 -56 745 -16 99
-29 193 -29 210 l0 29 25 -23 c30 -28 30 -28 6 41 -30 87 -73 179 -83 179 -5
0 -15 -15 -23 -32z m-160 -982 l40 -12 -40 -27 c-22 -15 -44 -27 -50 -27 -5 0
-25 18 -43 40 l-33 40 43 -1 c24 0 61 -6 83 -13z"/>
<path d="M3136 2099 c-8 -18 -12 -37 -10 -40 2 -4 24 -168 49 -365 25 -198 59
-465 75 -594 16 -129 30 -253 30 -275 0 -47 14 -76 23 -51 15 40 18 153 8 286
-15 186 -57 541 -82 695 -10 66 -19 133 -19 149 l0 29 26 -24 26 -24 -8 30
c-10 44 -74 188 -90 204 -11 13 -15 10 -28 -20z"/>
<path d="M5836 2108 c-28 -45 -28 -65 -1 -90 l25 -23 -34 -51 c-35 -51 -99
-113 -168 -163 -55 -38 -46 -48 10 -10 62 43 167 144 193 186 17 27 24 31 35
22 11 -9 14 -7 14 14 0 14 -4 29 -10 32 -5 3 -10 23 -10 44 0 58 -29 78 -54
39z m34 -44 c0 -17 -22 -14 -28 4 -2 7 3 12 12 12 9 0 16 -7 16 -16z"/>
<path d="M417 2100 c-3 -13 6 -38 28 -70 37 -55 51 -116 42 -183 l-6 -42 16
35 c25 57 15 166 -22 225 -34 55 -50 65 -58 35z"/>
<path d="M4235 2009 c-165 -61 -351 -129 -414 -151 -84 -30 -122 -50 -148 -75
-19 -19 -32 -37 -30 -39 6 -6 847 293 864 308 27 22 55 68 41 68 -7 -1 -148
-50 -313 -111z"/>
<path d="M1335 1969 c-55 -22 -152 -59 -215 -83 -645 -247 -715 -276 -743
-307 -16 -17 -26 -33 -24 -35 5 -5 15 -2 592 216 244 91 440 171 453 183 24
23 46 56 40 62 -2 2 -48 -15 -103 -36z"/>
<path d="M2475 1926 c-27 -64 -29 -95 -10 -116 52 -58 125 23 79 88 -8 12 -22
22 -30 22 -22 0 -16 -26 11 -44 38 -25 10 -65 -36 -51 -23 8 -25 42 -4 92 8
20 13 38 10 41 -2 3 -12 -12 -20 -32z"/>
<path d="M4485 1856 c-8 -12 -19 -49 -23 -82 l-7 -58 -19 29 c-46 74 -106 111
-106 67 0 -26 29 -62 50 -62 25 0 58 -44 71 -97 6 -23 15 -41 19 -38 4 2 10
43 12 90 4 55 12 94 23 111 15 24 18 24 40 10 25 -16 35 -12 35 15 0 41 -71
52 -95 15z"/>
<path d="M5440 1845 c0 -15 7 -39 15 -55 8 -16 11 -31 6 -34 -20 -13 -42 8
-54 51 -16 55 -32 56 -32 0 0 -49 -9 -67 -34 -67 -19 0 -31 26 -31 70 0 20 -2
22 -10 10 -15 -23 -12 -83 6 -108 20 -29 48 -28 72 3 12 15 23 21 27 15 3 -5
15 -15 25 -20 15 -8 24 -6 40 10 24 24 26 67 3 115 -20 41 -33 45 -33 10z"/>
<path d="M1401 1741 c-28 -66 -27 -97 3 -116 38 -25 86 4 86 51 0 23 -35 74
-51 74 -17 0 -9 -32 14 -50 18 -15 20 -22 11 -37 -14 -23 -43 -23 -58 -1 -7
12 -6 31 7 69 21 68 16 73 -12 10z"/>
<path d="M2567 1665 c-187 -76 -255 -108 -279 -132 -18 -18 -30 -34 -27 -37 2
-2 118 40 258 93 217 83 258 102 279 129 13 17 22 35 20 39 -1 5 -114 -37
-251 -92z"/>
<path d="M6330 1730 c-40 -78 -17 -141 46 -126 51 13 54 93 4 124 -18 11 -20
10 -20 -12 0 -15 7 -26 20 -29 29 -8 26 -45 -4 -53 -14 -3 -30 -3 -35 1 -15 9
-14 60 3 100 20 47 11 44 -14 -5z"/>
<path d="M1030 1618 c-25 -13 -61 -91 -48 -103 3 -4 16 -2 27 5 12 6 51 10 88
8 l66 -3 -34 -33 c-18 -18 -62 -51 -96 -74 -35 -22 -62 -43 -59 -45 11 -11
166 79 194 113 30 36 60 119 48 131 -13 13 -161 14 -186 1z"/>
<path d="M3501 1593 c-17 -44 -30 -125 -24 -158 6 -33 30 -65 48 -65 13 0 35
42 35 67 0 13 -3 13 -15 3 -39 -32 -65 46 -41 125 17 54 15 71 -3 28z"/>
<path d="M4090 1596 c0 -13 7 -37 15 -52 14 -26 13 -29 -2 -33 -21 -4 -41 22
-49 66 -9 49 -29 34 -29 -22 0 -84 -64 -85 -66 -1 l-1 31 -10 -28 c-15 -43 -2
-96 29 -110 22 -10 28 -8 48 15 20 23 25 25 35 13 17 -20 66 -19 74 1 11 28 6
73 -11 109 -19 41 -33 45 -33 11z"/>
<path d="M4707 1593 c-3 -5 -8 -30 -11 -58 -6 -48 -4 -55 62 -174 43 -77 67
-132 64 -144 -17 -66 -318 -270 -703 -478 -93 -50 -169 -92 -169 -94 0 -4 45
8 209 56 234 70 483 216 624 368 26 28 50 51 52 51 3 0 5 -16 5 -35 0 -51 28
-155 53 -200 31 -55 81 -87 132 -83 36 3 42 7 62 48 19 37 25 74 33 191 5 81
12 153 14 160 3 8 10 33 16 57 13 52 35 58 26 7 -4 -20 -7 -84 -8 -144 0 -90
3 -116 21 -157 28 -63 44 -80 97 -100 126 -48 233 44 259 221 l7 49 36 -69
c55 -103 126 -142 215 -115 54 16 92 59 107 121 18 76 8 120 -64 267 -36 73
-66 136 -66 138 0 3 9 2 20 -1 11 -3 20 -3 20 2 0 12 -89 123 -98 123 -5 0
-14 -16 -20 -37 -9 -31 -8 -40 7 -62 10 -14 22 -42 26 -61 4 -19 36 -100 71
-179 35 -79 64 -149 64 -156 0 -26 -37 -45 -89 -45 -120 0 -157 48 -206 268
-32 146 -67 238 -85 227 -5 -3 -14 -22 -19 -42 -9 -30 -5 -53 19 -136 66 -220
27 -364 -107 -403 -51 -15 -54 -15 -93 7 -29 17 -48 38 -66 75 -25 50 -25 55
-17 180 10 157 7 186 -15 182 -23 -4 -60 -63 -77 -122 -8 -28 -21 -114 -29
-191 -15 -153 -33 -211 -68 -224 -33 -12 -55 -3 -89 38 -50 61 -72 148 -71
282 1 109 -1 120 -28 175 -16 33 -39 74 -52 93 -18 29 -19 34 -5 28 25 -9 21
0 -20 54 -40 53 -40 53 -46 42z"/>
<path d="M4428 1444 c-3 -5 -9 -32 -13 -60 -6 -47 -4 -53 24 -83 16 -17 35
-48 42 -68 14 -44 10 -48 -106 -103 -168 -80 -360 -128 -552 -137 -173 -8
-246 9 -309 72 -33 34 -45 54 -54 98 -6 31 -9 73 -6 94 l6 38 -14 -30 c-25
-50 -38 -135 -31 -190 12 -97 70 -158 181 -191 117 -34 416 -4 614 62 196 65
300 140 318 229 12 55 3 125 -23 179 -21 44 -70 102 -77 90z"/>
<path d="M3750 1414 c0 -14 11 -40 23 -57 38 -51 49 -91 45 -160 -4 -78 6 -78
22 -1 18 84 -2 166 -53 222 -27 29 -37 28 -37 -4z"/>
<path d="M602 1367 l-42 -43 43 -42 43 -42 44 45 44 45 -30 31 c-49 52 -56 53
-102 6z"/>
<path d="M241 1215 c-12 -31 -21 -77 -21 -103 0 -74 44 -120 70 -73 16 30 13
51 -6 44 -40 -15 -58 74 -29 144 8 20 13 38 11 40 -2 3 -13 -21 -25 -52z"/>
<path d="M627 1062 c-9 -10 -23 -47 -30 -81 l-12 -62 -33 45 c-30 44 -75 76
-88 63 -15 -15 14 -63 50 -81 38 -19 75 -77 76 -118 0 -10 4 -18 9 -18 4 0 11
36 15 80 3 44 11 91 16 105 13 33 39 43 55 22 10 -15 14 -15 24 -3 15 18 5 41
-25 55 -33 15 -38 14 -57 -7z"/>
<path d="M3686 739 l-37 -42 37 -38 c21 -22 43 -39 50 -39 6 0 28 19 47 43
l35 43 -39 37 c-21 20 -43 37 -47 37 -5 0 -25 -19 -46 -41z"/>
<path d="M4810 763 c0 -9 -7 -24 -16 -34 -15 -17 -20 -42 -13 -68 5 -17 -68
-61 -175 -106 -88 -37 -90 -44 -5 -19 63 19 141 57 185 90 27 20 37 22 65 14
40 -12 59 1 59 41 0 22 -9 35 -40 55 -22 15 -40 31 -40 35 0 5 -4 9 -10 9 -5
0 -10 -8 -10 -17z m28 -55 c-3 -24 -17 -32 -36 -20 -18 12 -4 42 20 42 14 0
19 -6 16 -22z m62 -37 c0 -9 -8 -11 -27 -6 -35 8 -33 7 -27 33 6 21 7 21 30 4
13 -9 24 -23 24 -31z"/>
<path d="M2047 742 c-22 -24 -21 -35 1 -28 9 3 24 1 32 -4 11 -7 9 -11 -12
-19 -33 -12 -58 -48 -58 -81 0 -14 10 -45 21 -70 12 -25 30 -70 40 -100 l19
-55 -3 60 c-2 38 -13 81 -29 117 -24 52 -25 59 -12 73 9 8 27 18 42 21 57 14
66 40 27 79 -29 30 -46 31 -68 7z"/>
<path d="M6132 748 c-18 -18 -14 -37 7 -31 32 8 33 -15 2 -32 -32 -16 -51 -43
-51 -70 0 -9 14 -48 31 -87 17 -38 33 -85 36 -104 3 -19 10 -37 16 -41 18 -11
-1 103 -29 172 -30 75 -27 85 36 104 32 9 40 16 40 36 0 14 -11 32 -26 44 -30
24 -45 26 -62 9z"/>
<path d="M1418 696 l-37 -43 43 -42 42 -41 37 38 c20 21 37 42 37 48 0 10 -71
84 -81 84 -3 0 -21 -20 -41 -44z"/>
<path d="M1607 702 c-20 -21 -37 -43 -37 -48 0 -9 76 -84 85 -84 1 0 19 21 40
46 l38 46 -39 39 c-21 21 -41 39 -44 39 -3 0 -23 -17 -43 -38z"/>
<path d="M3242 581 c-173 -67 -232 -95 -258 -121 -19 -18 -32 -35 -30 -38 3
-2 108 33 233 78 198 71 232 87 261 118 31 34 40 53 25 51 -5 -1 -109 -40
-231 -88z"/>
<path d="M5285 559 c-169 -65 -237 -96 -259 -118 -17 -17 -27 -33 -24 -36 3
-3 86 24 184 59 293 105 287 102 313 141 13 20 22 37 20 39 -2 2 -107 -37
-234 -85z"/>
</g>
</svg>
