<svg xmlns="http://www.w3.org/2000/svg" xmlns:xlink="http://www.w3.org/1999/xlink" width="300" zoomAndPan="magnify" viewBox="0 0 224.87999 506.249968" height="675" preserveAspectRatio="xMidYMid meet" version="1.0"><defs><clipPath id="b0ef51810c"><path d="M 104 22.464844 L 112 22.464844 L 112 34 L 104 34 Z M 104 22.464844 " clip-rule="nonzero"/></clipPath><clipPath id="519eae6e22"><path d="M 28.019531 83 L 38 83 L 38 90 L 28.019531 90 Z M 28.019531 83 " clip-rule="nonzero"/></clipPath><clipPath id="848e068918"><path d="M 28.019531 90 L 38 90 L 38 98 L 28.019531 98 Z M 28.019531 90 " clip-rule="nonzero"/></clipPath><clipPath id="fb7bbb69d7"><path d="M 166 82 L 177.800781 82 L 177.800781 90 L 166 90 Z M 166 82 " clip-rule="nonzero"/></clipPath><clipPath id="f15cc51967"><path d="M 166 91 L 177.800781 91 L 177.800781 99 L 166 99 Z M 166 91 " clip-rule="nonzero"/></clipPath><clipPath id="4052157d75"><path d="M 93 194.183594 L 102 194.183594 L 102 212 L 93 212 Z M 93 194.183594 " clip-rule="nonzero"/></clipPath><clipPath id="0cd71059f7"><path d="M 102 194.183594 L 111 194.183594 L 111 212 L 102 212 Z M 102 194.183594 " clip-rule="nonzero"/></clipPath><clipPath id="0f86f5b331"><path d="M 94 327 L 103 327 L 103 344.710938 L 94 344.710938 Z M 94 327 " clip-rule="nonzero"/></clipPath><clipPath id="0f7b7e8eb0"><path d="M 103 327 L 112 327 L 112 344.710938 L 103 344.710938 Z M 103 327 " clip-rule="nonzero"/></clipPath><clipPath id="e756f4b130"><path d="M 162 261 L 177.800781 261 L 177.800781 279 L 162 279 Z M 162 261 " clip-rule="nonzero"/></clipPath><clipPath id="8fc4791fe7"><path d="M 28.019531 261 L 44 261 L 44 279 L 28.019531 279 Z M 28.019531 261 " clip-rule="nonzero"/></clipPath></defs><path fill="#000000" d="M 103.074219 40.203125 L 99.035156 36.164062 L 103.074219 32.128906 L 107.109375 36.164062 Z M 103.074219 40.203125 " fill-opacity="1" fill-rule="nonzero"/><path fill="#000000" d="M 89.101562 31.203125 C 88.6875 33 89.898438 34.871094 91.835938 35.355469 C 93.773438 35.839844 99.519531 34.558594 99.519531 34.558594 C 99.519531 34.558594 99.519531 34.558594 93.636719 29.054688 C 92.21875 27.707031 89.519531 29.402344 89.101562 31.203125 Z M 89.101562 31.203125 " fill-opacity="1" fill-rule="nonzero"/><path fill="#000000" d="M 100.347656 33.796875 L 100.105469 34.074219 L 93.980469 28.398438 L 94.222656 28.15625 Z M 100.347656 33.796875 " fill-opacity="1" fill-rule="nonzero"/><path fill="#000000" d="M 96.855469 23.277344 C 98.621094 22.722656 100.558594 23.832031 101.179688 25.734375 C 101.804688 27.636719 100.9375 33.519531 100.9375 33.519531 C 100.9375 33.519531 100.9375 33.519531 95.019531 28.019531 C 93.601562 26.632812 95.089844 23.832031 96.855469 23.277344 Z M 96.855469 23.277344 " fill-opacity="1" fill-rule="nonzero"/><path fill="#000000" d="M 116.648438 30.992188 C 117.066406 32.792969 115.851562 34.664062 113.914062 35.148438 C 111.976562 35.632812 106.234375 34.351562 106.234375 34.351562 C 106.234375 34.351562 106.234375 34.351562 112.117188 28.847656 C 113.5 27.5 116.199219 29.195312 116.648438 30.992188 Z M 116.648438 30.992188 " fill-opacity="1" fill-rule="nonzero"/><path fill="#000000" d="M 105.367188 33.589844 L 105.609375 33.832031 L 111.734375 28.191406 L 111.527344 27.914062 Z M 105.367188 33.589844 " fill-opacity="1" fill-rule="nonzero"/><g clip-path="url(#b0ef51810c)"><path fill="#000000" d="M 108.898438 23.035156 C 107.132812 22.480469 105.195312 23.589844 104.570312 25.492188 C 103.949219 27.429688 104.8125 33.277344 104.8125 33.277344 C 104.8125 33.277344 104.8125 33.277344 110.730469 27.777344 C 112.152344 26.425781 110.664062 23.621094 108.898438 23.035156 Z M 108.898438 23.035156 " fill-opacity="1" fill-rule="nonzero"/></g><path fill="#000000" d="M 88.964844 41.339844 C 88.546875 39.542969 89.761719 37.671875 91.699219 37.1875 C 93.636719 36.703125 99.378906 37.984375 99.378906 37.984375 C 99.378906 37.984375 99.378906 37.984375 93.496094 43.488281 C 92.078125 44.871094 89.378906 43.140625 88.964844 41.339844 Z M 88.964844 41.339844 " fill-opacity="1" fill-rule="nonzero"/><path fill="#000000" d="M 100.210938 38.746094 L 99.96875 38.503906 L 93.84375 44.144531 L 94.085938 44.421875 Z M 100.210938 38.746094 " fill-opacity="1" fill-rule="nonzero"/><path fill="#000000" d="M 96.679688 49.300781 C 98.445312 49.855469 100.382812 48.746094 101.007812 46.84375 C 101.628906 44.941406 100.765625 39.058594 100.765625 39.058594 C 100.765625 39.058594 100.765625 39.058594 94.847656 44.558594 C 93.429688 45.910156 94.949219 48.746094 96.679688 49.300781 Z M 96.679688 49.300781 " fill-opacity="1" fill-rule="nonzero"/><path fill="#000000" d="M 116.476562 41.550781 C 116.890625 39.75 115.679688 37.878906 113.742188 37.394531 C 111.804688 36.910156 106.058594 38.191406 106.058594 38.191406 C 106.058594 38.191406 106.058594 38.191406 111.941406 43.695312 C 113.363281 45.078125 116.0625 43.382812 116.476562 41.550781 Z M 116.476562 41.550781 " fill-opacity="1" fill-rule="nonzero"/><path fill="#000000" d="M 105.230469 38.953125 L 105.472656 38.710938 L 111.597656 44.351562 L 111.355469 44.628906 Z M 105.230469 38.953125 " fill-opacity="1" fill-rule="nonzero"/><path fill="#000000" d="M 108.722656 49.507812 C 106.960938 50.0625 105.019531 48.953125 104.398438 47.050781 C 103.777344 45.148438 104.640625 39.265625 104.640625 39.265625 C 104.640625 39.265625 104.640625 39.265625 110.558594 44.765625 C 111.976562 46.117188 110.488281 48.953125 108.722656 49.507812 Z M 108.722656 49.507812 " fill-opacity="1" fill-rule="nonzero"/><g clip-path="url(#519eae6e22)"><path fill="#000000" d="M 28.539062 85.707031 C 28.160156 87.332031 29.265625 88.996094 30.996094 89.410156 C 32.726562 89.824219 37.882812 88.683594 37.882812 88.683594 C 37.882812 88.683594 37.882812 88.683594 32.625 83.769531 C 31.34375 82.59375 28.921875 84.082031 28.539062 85.707031 Z M 28.539062 85.707031 " fill-opacity="1" fill-rule="nonzero"/></g><path fill="#000000" d="M 38.609375 88.027344 L 38.367188 88.269531 L 32.902344 83.214844 L 33.109375 82.972656 Z M 38.609375 88.027344 " fill-opacity="1" fill-rule="nonzero"/><path fill="#000000" d="M 35.460938 78.613281 C 37.019531 78.09375 38.75 79.097656 39.304688 80.792969 C 39.855469 82.523438 39.09375 87.75 39.09375 87.75 C 39.09375 87.75 39.09375 87.75 33.835938 82.835938 C 32.554688 81.625 33.90625 79.097656 35.460938 78.613281 Z M 35.460938 78.613281 " fill-opacity="1" fill-rule="nonzero"/><path fill="#000000" d="M 53.144531 85.5 C 53.527344 87.125 52.417969 88.789062 50.6875 89.203125 C 48.957031 89.617188 43.800781 88.476562 43.800781 88.476562 C 43.800781 88.476562 43.800781 88.476562 49.0625 83.5625 C 50.34375 82.386719 52.765625 83.90625 53.144531 85.5 Z M 53.144531 85.5 " fill-opacity="1" fill-rule="nonzero"/><path fill="#000000" d="M 43.074219 87.816406 L 43.28125 88.058594 L 48.785156 83.007812 L 48.578125 82.765625 Z M 43.074219 87.816406 " fill-opacity="1" fill-rule="nonzero"/><path fill="#000000" d="M 46.222656 78.40625 C 44.667969 77.886719 42.9375 78.890625 42.382812 80.585938 C 41.828125 82.28125 42.589844 87.542969 42.589844 87.542969 C 42.589844 87.542969 42.589844 87.542969 47.851562 82.628906 C 49.132812 81.449219 47.78125 78.925781 46.222656 78.40625 Z M 46.222656 78.40625 " fill-opacity="1" fill-rule="nonzero"/><g clip-path="url(#848e068918)"><path fill="#000000" d="M 28.402344 94.773438 C 28.019531 93.148438 29.128906 91.488281 30.859375 91.070312 C 32.589844 90.65625 37.746094 91.796875 37.746094 91.796875 C 37.746094 91.796875 37.746094 91.796875 32.484375 96.710938 C 31.207031 97.890625 28.78125 96.367188 28.402344 94.773438 Z M 28.402344 94.773438 " fill-opacity="1" fill-rule="nonzero"/></g><path fill="#000000" d="M 38.472656 92.457031 L 38.265625 92.214844 L 32.761719 97.265625 L 32.96875 97.507812 Z M 38.472656 92.457031 " fill-opacity="1" fill-rule="nonzero"/><path fill="#000000" d="M 35.324219 101.867188 C 36.878906 102.386719 38.609375 101.382812 39.164062 99.6875 C 39.71875 97.957031 38.957031 92.734375 38.957031 92.734375 C 38.957031 92.734375 38.957031 92.734375 33.695312 97.648438 C 32.417969 98.859375 33.765625 101.347656 35.324219 101.867188 Z M 35.324219 101.867188 " fill-opacity="1" fill-rule="nonzero"/><path fill="#000000" d="M 53.007812 94.949219 C 53.386719 93.320312 52.28125 91.660156 50.550781 91.246094 C 48.820312 90.828125 43.664062 91.972656 43.664062 91.972656 C 43.664062 91.972656 43.664062 91.972656 48.925781 96.886719 C 50.203125 98.097656 52.625 96.574219 53.007812 94.949219 Z M 53.007812 94.949219 " fill-opacity="1" fill-rule="nonzero"/><path fill="#000000" d="M 42.972656 92.628906 L 43.179688 92.421875 L 48.648438 97.472656 L 48.4375 97.679688 Z M 42.972656 92.628906 " fill-opacity="1" fill-rule="nonzero"/><path fill="#000000" d="M 46.085938 102.078125 C 44.527344 102.59375 42.796875 101.589844 42.246094 99.894531 C 41.691406 98.164062 42.453125 92.941406 42.453125 92.941406 C 42.453125 92.941406 42.453125 92.941406 47.710938 97.855469 C 48.992188 99.03125 47.644531 101.558594 46.085938 102.078125 Z M 46.085938 102.078125 " fill-opacity="1" fill-rule="nonzero"/><path fill="#000000" d="M 45.117188 90.03125 L 43.109375 87.816406 L 41.207031 85.742188 L 41.207031 85.601562 L 41.136719 85.671875 L 41.066406 85.601562 L 41.066406 85.742188 L 39.164062 87.816406 L 37.15625 90.03125 L 39.164062 92.246094 L 41.066406 94.324219 L 41.066406 94.460938 L 41.136719 94.394531 L 41.207031 94.460938 L 41.207031 94.324219 L 43.109375 92.246094 Z M 41.898438 90.933594 L 41.136719 91.761719 L 40.375 90.933594 L 39.578125 90.03125 L 40.375 89.132812 L 41.136719 88.304688 L 41.898438 89.132812 L 42.695312 90.03125 Z M 41.898438 90.933594 " fill-opacity="1" fill-rule="nonzero"/><path fill="#000000" d="M 54.738281 76.953125 L 53.109375 76.847656 L 51.554688 76.742188 L 51.519531 76.710938 L 51.519531 76.742188 L 51.484375 76.742188 L 51.519531 76.777344 L 51.589844 78.335938 L 51.65625 79.960938 L 53.285156 80.066406 L 54.839844 80.171875 L 54.875 80.203125 L 54.875 80.171875 L 54.910156 80.171875 L 54.875 80.136719 L 54.808594 78.578125 Z M 53.839844 78.542969 L 53.871094 79.167969 L 53.25 79.132812 L 52.59375 79.097656 L 52.558594 78.441406 L 52.523438 77.816406 L 53.144531 77.851562 L 53.804688 77.886719 Z M 53.839844 78.542969 " fill-opacity="1" fill-rule="nonzero"/><path fill="#000000" d="M 56.539062 77.089844 L 56.605469 77.714844 L 55.984375 77.714844 L 55.324219 77.746094 L 55.257812 77.089844 L 55.152344 76.46875 L 55.777344 76.46875 L 56.433594 76.433594 Z M 56.539062 77.089844 " fill-opacity="1" fill-rule="nonzero"/><path fill="#000000" d="M 55.015625 75.84375 L 55.082031 76.433594 L 54.460938 76.46875 L 53.804688 76.46875 L 53.734375 75.808594 L 53.664062 75.222656 L 54.253906 75.1875 L 54.910156 75.1875 Z M 55.015625 75.84375 " fill-opacity="1" fill-rule="nonzero"/><path fill="#000000" d="M 56.433594 75.601562 L 56.539062 76.226562 L 55.914062 76.257812 L 55.257812 76.257812 L 55.152344 75.601562 L 55.082031 75.015625 L 55.707031 74.980469 L 56.363281 74.945312 Z M 56.433594 75.601562 " fill-opacity="1" fill-rule="nonzero"/><path fill="#000000" d="M 79.515625 50.441406 L 77.542969 50.410156 L 77.542969 51.929688 L 79.480469 51.964844 L 79.480469 53.902344 L 80.96875 53.9375 L 81.003906 51.964844 L 81.003906 50.996094 L 83.53125 51.03125 L 83.53125 52 L 83.496094 53.9375 L 85.019531 53.972656 L 85.054688 52.035156 L 86.992188 52.035156 L 86.992188 50.511719 L 85.054688 50.511719 L 83.53125 50.476562 L 83.566406 48.296875 L 81.039062 48.261719 L 81.074219 46.738281 L 81.074219 44.800781 L 79.585938 44.765625 L 79.550781 46.738281 L 77.613281 46.707031 L 77.578125 48.226562 L 79.515625 48.226562 L 80.832031 48.261719 L 80.796875 50.441406 Z M 79.515625 50.441406 " fill-opacity="1" fill-rule="nonzero"/><path fill="#000000" d="M 87.027344 48.332031 L 87.0625 46.808594 L 85.089844 46.773438 L 85.121094 44.835938 L 83.601562 44.835938 L 83.601562 46.773438 L 83.566406 48.296875 L 85.089844 48.296875 Z M 87.027344 48.332031 " fill-opacity="1" fill-rule="nonzero"/><path fill="#000000" d="M 72.144531 57.8125 L 70.207031 57.78125 L 70.171875 59.300781 L 72.144531 59.300781 L 72.109375 61.273438 L 73.632812 61.273438 L 73.632812 59.335938 L 73.667969 58.332031 L 76.160156 58.367188 L 76.160156 61.308594 L 77.648438 61.34375 L 77.683594 59.371094 L 79.621094 59.40625 L 79.65625 57.882812 L 77.683594 57.847656 L 76.195312 57.847656 L 76.195312 55.632812 L 73.703125 55.632812 L 73.703125 54.109375 L 73.738281 52.140625 L 72.214844 52.140625 L 72.179688 54.078125 L 70.242188 54.078125 L 70.207031 55.566406 L 72.179688 55.597656 L 73.460938 55.597656 L 73.460938 57.8125 Z M 72.144531 57.8125 " fill-opacity="1" fill-rule="nonzero"/><path fill="#000000" d="M 79.65625 55.667969 L 79.6875 54.179688 L 77.75 54.144531 L 77.75 52.207031 L 76.230469 52.171875 L 76.230469 54.144531 L 76.195312 55.632812 L 77.714844 55.667969 Z M 79.65625 55.667969 " fill-opacity="1" fill-rule="nonzero"/><path fill="#000000" d="M 64.773438 65.152344 L 62.835938 65.152344 L 62.835938 66.671875 L 64.773438 66.671875 L 64.738281 68.613281 L 66.261719 68.644531 L 66.296875 66.707031 L 66.296875 65.703125 L 68.824219 65.738281 L 68.789062 66.707031 L 68.789062 68.679688 L 70.3125 68.679688 L 70.3125 66.742188 L 72.285156 66.777344 L 72.285156 65.253906 L 70.34375 65.21875 L 68.824219 65.21875 L 68.855469 63.003906 L 66.332031 62.96875 L 66.332031 61.449219 L 66.367188 59.511719 L 64.84375 59.511719 L 64.84375 61.449219 L 62.871094 61.414062 L 62.871094 62.9375 L 64.808594 62.96875 L 66.125 62.96875 L 66.089844 65.183594 Z M 64.773438 65.152344 " fill-opacity="1" fill-rule="nonzero"/><path fill="#000000" d="M 72.316406 63.039062 L 72.316406 61.515625 L 70.378906 61.515625 L 70.414062 59.542969 L 68.890625 59.542969 L 68.855469 61.484375 L 68.855469 63.003906 L 70.34375 63.039062 Z M 72.316406 63.039062 " fill-opacity="1" fill-rule="nonzero"/><path fill="#000000" d="M 57.4375 72.523438 L 55.464844 72.488281 L 55.464844 74.011719 L 57.402344 74.042969 L 57.402344 75.984375 L 58.890625 76.015625 L 58.925781 74.042969 L 58.925781 73.074219 L 61.453125 73.109375 L 61.453125 74.078125 L 61.417969 76.015625 L 62.941406 76.050781 L 62.972656 74.113281 L 64.914062 74.113281 L 64.914062 72.589844 L 62.972656 72.589844 L 61.453125 72.558594 L 61.484375 70.375 L 58.960938 70.34375 L 58.996094 68.820312 L 58.996094 66.882812 L 57.507812 66.847656 L 57.472656 68.820312 L 55.535156 68.785156 L 55.5 70.308594 L 57.4375 70.308594 L 58.753906 70.34375 L 58.71875 72.523438 Z M 57.4375 72.523438 " fill-opacity="1" fill-rule="nonzero"/><path fill="#000000" d="M 64.945312 70.410156 L 64.980469 68.886719 L 63.007812 68.855469 L 63.042969 66.914062 L 61.519531 66.914062 L 61.519531 68.855469 L 61.484375 70.375 L 63.007812 70.375 Z M 64.945312 70.410156 " fill-opacity="1" fill-rule="nonzero"/><path fill="#000000" d="M 89.414062 43.972656 L 90.972656 44.039062 L 91.003906 44.074219 L 91.003906 44.039062 L 91.039062 44.039062 L 91.003906 44.007812 L 90.902344 42.449219 L 90.796875 40.824219 L 89.171875 40.753906 L 87.613281 40.683594 L 87.578125 40.648438 L 87.578125 40.683594 L 87.546875 40.683594 L 87.578125 40.71875 L 87.683594 42.277344 L 87.789062 43.902344 Z M 88.722656 42.96875 L 88.6875 42.308594 L 88.652344 41.6875 L 89.277344 41.722656 L 89.933594 41.757812 L 89.96875 42.414062 L 90.003906 43.039062 L 89.378906 43.003906 Z M 88.722656 42.96875 " fill-opacity="1" fill-rule="nonzero"/><path fill="#000000" d="M 87.304688 45.597656 L 87.304688 44.941406 L 87.335938 44.316406 L 87.925781 44.386719 L 88.582031 44.492188 L 88.582031 45.148438 L 88.546875 45.769531 L 87.925781 45.667969 Z M 87.304688 45.597656 " fill-opacity="1" fill-rule="nonzero"/><path fill="#000000" d="M 86.023438 44.074219 L 86.023438 43.417969 L 86.058594 42.792969 L 86.644531 42.898438 L 87.304688 42.96875 L 87.304688 43.625 L 87.269531 44.25 L 86.679688 44.179688 Z M 86.023438 44.074219 " fill-opacity="1" fill-rule="nonzero"/><path fill="#000000" d="M 85.816406 45.527344 L 85.816406 44.871094 L 85.847656 44.25 L 86.4375 44.316406 L 87.09375 44.386719 L 87.09375 45.078125 L 87.0625 45.667969 L 86.472656 45.597656 Z M 85.816406 45.527344 " fill-opacity="1" fill-rule="nonzero"/><path fill="#000000" d="M 99.277344 88.164062 L 97.269531 90.378906 L 101.285156 94.808594 L 101.285156 92.179688 L 100.488281 91.277344 L 99.691406 90.378906 L 100.488281 89.480469 L 101.285156 88.578125 L 101.285156 85.949219 Z M 99.277344 88.164062 " fill-opacity="1" fill-rule="nonzero"/><path fill="#000000" d="M 103.984375 88.164062 L 106.023438 90.378906 L 103.984375 92.59375 L 101.976562 94.808594 L 101.976562 92.179688 L 102.808594 91.277344 L 103.601562 90.378906 L 102.808594 89.480469 L 101.976562 88.578125 L 101.976562 85.949219 Z M 103.984375 88.164062 " fill-opacity="1" fill-rule="nonzero"/><path fill="#000000" d="M 90.453125 77.160156 L 100.488281 85.429688 L 100.488281 80.929688 L 90.730469 71.207031 Z M 90.453125 77.160156 " fill-opacity="1" fill-rule="nonzero"/><path fill="#000000" d="M 90.9375 66.570312 L 90.730469 70.6875 L 100.488281 80.414062 L 100.488281 76.085938 Z M 90.9375 66.570312 " fill-opacity="1" fill-rule="nonzero"/><path fill="#000000" d="M 100.488281 70.964844 L 91.144531 61.621094 L 90.9375 66.050781 L 100.488281 75.566406 Z M 100.488281 70.964844 " fill-opacity="1" fill-rule="nonzero"/><path fill="#000000" d="M 112.289062 77.503906 L 102.21875 85.777344 L 102.21875 81.277344 L 112.011719 71.554688 Z M 112.289062 77.503906 " fill-opacity="1" fill-rule="nonzero"/><path fill="#000000" d="M 111.804688 66.914062 L 111.976562 71.035156 L 102.21875 80.757812 L 102.21875 76.433594 Z M 111.804688 66.914062 " fill-opacity="1" fill-rule="nonzero"/><path fill="#000000" d="M 102.21875 71.3125 L 111.597656 61.96875 L 111.769531 66.398438 L 102.21875 75.914062 Z M 102.21875 71.3125 " fill-opacity="1" fill-rule="nonzero"/><path fill="#000000" d="M 88.722656 101.039062 L 96.992188 90.96875 L 92.492188 90.96875 L 82.769531 100.761719 Z M 88.722656 101.039062 " fill-opacity="1" fill-rule="nonzero"/><path fill="#000000" d="M 78.132812 100.554688 L 82.25 100.726562 L 91.976562 90.96875 L 87.648438 90.96875 Z M 78.132812 100.554688 " fill-opacity="1" fill-rule="nonzero"/><path fill="#000000" d="M 82.527344 90.96875 L 73.183594 100.3125 L 77.613281 100.519531 L 87.128906 90.96875 Z M 82.527344 90.96875 " fill-opacity="1" fill-rule="nonzero"/><path fill="#000000" d="M 89.066406 79.203125 L 97.339844 89.238281 L 92.839844 89.238281 L 83.117188 79.445312 Z M 89.066406 79.203125 " fill-opacity="1" fill-rule="nonzero"/><path fill="#000000" d="M 78.476562 79.652344 L 82.597656 79.476562 L 92.320312 89.238281 L 87.996094 89.238281 Z M 78.476562 79.652344 " fill-opacity="1" fill-rule="nonzero"/><path fill="#000000" d="M 82.875 89.238281 L 73.53125 79.894531 L 77.957031 79.6875 L 87.476562 89.238281 Z M 82.875 89.238281 " fill-opacity="1" fill-rule="nonzero"/><path fill="#000000" d="M 114.675781 101.039062 L 106.40625 90.96875 L 110.871094 90.96875 L 120.628906 100.761719 Z M 114.675781 101.039062 " fill-opacity="1" fill-rule="nonzero"/><path fill="#000000" d="M 125.265625 100.554688 L 121.113281 100.726562 L 111.421875 90.96875 L 115.714844 90.96875 Z M 125.265625 100.554688 " fill-opacity="1" fill-rule="nonzero"/><path fill="#000000" d="M 120.871094 90.96875 L 130.214844 100.3125 L 125.75 100.519531 L 116.234375 90.96875 Z M 120.871094 90.96875 " fill-opacity="1" fill-rule="nonzero"/><path fill="#000000" d="M 114.332031 79.203125 L 106.058594 89.238281 L 110.523438 89.238281 L 120.28125 79.445312 Z M 114.332031 79.203125 " fill-opacity="1" fill-rule="nonzero"/><path fill="#000000" d="M 124.921875 79.652344 L 120.765625 79.476562 L 111.078125 89.238281 L 115.367188 89.238281 Z M 124.921875 79.652344 " fill-opacity="1" fill-rule="nonzero"/><path fill="#000000" d="M 120.523438 89.238281 L 129.867188 79.894531 L 125.40625 79.6875 L 115.921875 89.238281 Z M 120.523438 89.238281 " fill-opacity="1" fill-rule="nonzero"/><path fill="#000000" d="M 90.453125 103.289062 L 100.488281 95.015625 L 100.488281 99.515625 L 90.730469 109.238281 Z M 90.453125 103.289062 " fill-opacity="1" fill-rule="nonzero"/><path fill="#000000" d="M 90.9375 113.878906 L 90.730469 109.722656 L 100.488281 100.035156 L 100.488281 104.359375 Z M 90.9375 113.878906 " fill-opacity="1" fill-rule="nonzero"/><path fill="#000000" d="M 100.488281 109.480469 L 91.144531 118.824219 L 90.9375 114.363281 L 100.488281 104.878906 Z M 100.488281 109.480469 " fill-opacity="1" fill-rule="nonzero"/><path fill="#000000" d="M 112.289062 102.941406 L 102.21875 94.671875 L 102.21875 99.167969 L 112.011719 108.894531 Z M 112.289062 102.941406 " fill-opacity="1" fill-rule="nonzero"/><path fill="#000000" d="M 111.804688 113.53125 L 111.976562 109.378906 L 102.21875 99.6875 L 102.21875 104.015625 Z M 111.804688 113.53125 " fill-opacity="1" fill-rule="nonzero"/><path fill="#000000" d="M 102.21875 109.136719 L 111.597656 118.480469 L 111.769531 114.015625 L 102.21875 104.535156 Z M 102.21875 109.136719 " fill-opacity="1" fill-rule="nonzero"/><path fill="#000000" d="M 87.476562 76.523438 L 88.066406 75.933594 L 99.417969 87.289062 L 98.832031 87.875 Z M 87.476562 76.523438 " fill-opacity="1" fill-rule="nonzero"/><path fill="#000000" d="M 104.902344 87.535156 L 104.3125 86.949219 L 115.667969 75.59375 L 116.253906 76.179688 Z M 104.902344 87.535156 " fill-opacity="1" fill-rule="nonzero"/><path fill="#000000" d="M 97.675781 93.0625 L 98.261719 93.648438 L 86.90625 105.003906 L 86.320312 104.414062 Z M 97.675781 93.0625 " fill-opacity="1" fill-rule="nonzero"/><path fill="#000000" d="M 116.375 103.914062 L 115.785156 104.5 L 104.433594 93.148438 L 105.019531 92.558594 Z M 116.375 103.914062 " fill-opacity="1" fill-rule="nonzero"/><path fill="#000000" d="M 99 62.589844 L 96.992188 64.804688 L 101.007812 69.234375 L 101.007812 66.605469 L 100.210938 65.703125 L 99.378906 64.804688 L 100.210938 63.90625 L 101.007812 63.003906 L 101.007812 60.375 Z M 99 62.589844 " fill-opacity="1" fill-rule="nonzero"/><path fill="#000000" d="M 103.707031 62.589844 L 105.714844 64.804688 L 101.699219 69.234375 L 101.699219 66.605469 L 102.496094 65.703125 L 103.324219 64.804688 L 102.496094 63.90625 L 101.699219 63.003906 L 101.699219 60.375 Z M 103.707031 62.589844 " fill-opacity="1" fill-rule="nonzero"/><path fill="#000000" d="M 99 53.039062 L 96.992188 55.253906 L 101.007812 59.683594 L 101.007812 57.019531 L 100.210938 56.152344 L 99.378906 55.253906 L 100.210938 54.355469 L 101.007812 53.453125 L 101.007812 50.824219 Z M 99 53.039062 " fill-opacity="1" fill-rule="nonzero"/><path fill="#000000" d="M 103.707031 53.039062 L 105.714844 55.253906 L 101.699219 59.683594 L 101.699219 57.019531 L 102.496094 56.152344 L 103.324219 55.253906 L 102.496094 54.355469 L 101.699219 53.453125 L 101.699219 50.824219 Z M 103.707031 53.039062 " fill-opacity="1" fill-rule="nonzero"/><path fill="#000000" d="M 110.386719 60.203125 L 108.378906 57.988281 L 106.476562 55.910156 L 106.476562 55.773438 L 106.40625 55.839844 L 106.335938 55.773438 L 106.335938 55.910156 L 104.433594 57.988281 L 102.425781 60.203125 L 104.433594 62.417969 L 106.335938 64.492188 L 106.335938 64.632812 L 106.40625 64.5625 L 106.476562 64.632812 L 106.476562 64.492188 L 108.378906 62.417969 Z M 107.167969 61.101562 L 106.40625 61.933594 L 105.644531 61.101562 L 104.847656 60.203125 L 105.644531 59.300781 L 106.40625 58.472656 L 107.167969 59.300781 L 107.964844 60.203125 Z M 107.167969 61.101562 " fill-opacity="1" fill-rule="nonzero"/><path fill="#000000" d="M 100.246094 60.203125 L 98.238281 57.988281 L 96.335938 55.910156 L 96.335938 55.773438 L 96.265625 55.839844 L 96.195312 55.773438 L 96.195312 55.910156 L 94.292969 57.988281 L 92.285156 60.203125 L 94.292969 62.417969 L 96.195312 64.492188 L 96.195312 64.632812 L 96.265625 64.5625 L 96.335938 64.632812 L 96.335938 64.492188 L 98.238281 62.417969 Z M 97.027344 61.101562 L 96.265625 61.933594 L 95.503906 61.101562 L 94.707031 60.203125 L 95.503906 59.300781 L 96.265625 58.472656 L 97.027344 59.300781 L 97.824219 60.203125 Z M 97.027344 61.101562 " fill-opacity="1" fill-rule="nonzero"/><path fill="#000000" d="M 99.347656 122.667969 L 97.339844 124.882812 L 99.347656 127.097656 L 101.351562 129.3125 L 101.351562 126.683594 L 100.558594 125.78125 L 99.726562 124.882812 L 100.558594 123.980469 L 101.351562 123.117188 L 101.351562 120.453125 Z M 99.347656 122.667969 " fill-opacity="1" fill-rule="nonzero"/><path fill="#000000" d="M 104.050781 122.667969 L 106.058594 124.882812 L 104.050781 127.097656 L 102.046875 129.3125 L 102.046875 126.683594 L 102.839844 125.78125 L 103.671875 124.882812 L 102.839844 123.980469 L 102.046875 123.117188 L 102.046875 120.453125 Z M 104.050781 122.667969 " fill-opacity="1" fill-rule="nonzero"/><path fill="#000000" d="M 99.347656 113.117188 L 97.339844 115.332031 L 99.347656 117.546875 L 101.351562 119.761719 L 101.351562 117.09375 L 100.558594 116.230469 L 99.726562 115.332031 L 100.558594 114.429688 L 101.351562 113.53125 L 101.351562 110.902344 Z M 99.347656 113.117188 " fill-opacity="1" fill-rule="nonzero"/><path fill="#000000" d="M 104.050781 113.117188 L 106.058594 115.332031 L 104.050781 117.546875 L 102.046875 119.761719 L 102.046875 117.09375 L 102.839844 116.230469 L 103.671875 115.332031 L 102.839844 114.429688 L 102.046875 113.53125 L 102.046875 110.902344 Z M 104.050781 113.117188 " fill-opacity="1" fill-rule="nonzero"/><path fill="#000000" d="M 110.730469 120.28125 L 108.722656 118.066406 L 106.820312 115.988281 L 106.820312 115.851562 L 106.75 115.917969 L 106.683594 115.851562 L 106.683594 115.988281 L 104.777344 118.066406 L 102.773438 120.28125 L 104.777344 122.496094 L 106.683594 124.570312 L 106.683594 124.710938 L 106.75 124.640625 L 106.820312 124.710938 L 106.820312 124.570312 L 108.722656 122.496094 Z M 107.511719 121.179688 L 106.75 122.011719 L 105.992188 121.179688 L 105.195312 120.28125 L 105.992188 119.378906 L 106.75 118.550781 L 107.511719 119.378906 L 108.308594 120.28125 Z M 107.511719 121.179688 " fill-opacity="1" fill-rule="nonzero"/><path fill="#000000" d="M 100.59375 120.28125 L 98.585938 118.066406 L 96.679688 115.988281 L 96.679688 115.851562 L 96.613281 115.917969 L 96.542969 115.851562 L 96.542969 115.988281 L 94.640625 118.066406 L 92.632812 120.28125 L 94.640625 122.496094 L 96.542969 124.570312 L 96.542969 124.710938 L 96.613281 124.640625 L 96.679688 124.710938 L 96.679688 124.570312 L 98.585938 122.496094 Z M 97.375 121.179688 L 96.613281 122.011719 L 95.851562 121.179688 L 95.054688 120.28125 L 95.851562 119.378906 L 96.613281 118.550781 L 97.375 119.378906 L 98.167969 120.28125 Z M 97.375 121.179688 " fill-opacity="1" fill-rule="nonzero"/><path fill="#000000" d="M 135.71875 85.085938 L 133.710938 82.871094 L 131.808594 80.792969 L 131.808594 80.65625 L 131.738281 80.722656 L 131.667969 80.65625 L 131.667969 80.792969 L 129.765625 82.871094 L 127.757812 85.085938 L 129.765625 87.300781 L 131.667969 89.375 L 131.667969 89.515625 L 131.738281 89.445312 L 131.808594 89.515625 L 131.808594 89.375 L 133.710938 87.300781 Z M 132.5 85.984375 L 131.738281 86.816406 L 130.976562 85.984375 L 130.179688 85.085938 L 130.976562 84.183594 L 131.738281 83.355469 L 132.5 84.183594 L 133.296875 85.085938 Z M 132.5 85.984375 " fill-opacity="1" fill-rule="nonzero"/><path fill="#000000" d="M 130.769531 90.242188 L 128.761719 88.027344 L 126.859375 85.949219 L 126.859375 85.8125 L 126.789062 85.878906 L 126.71875 85.8125 L 126.71875 85.949219 L 124.816406 88.027344 L 122.808594 90.242188 L 124.816406 92.457031 L 126.71875 94.53125 L 126.71875 94.671875 L 126.789062 94.601562 L 126.859375 94.671875 L 126.859375 94.53125 L 128.761719 92.457031 Z M 127.550781 91.140625 L 126.789062 91.972656 L 126.027344 91.140625 L 125.230469 90.242188 L 126.027344 89.339844 L 126.789062 88.511719 L 127.550781 89.339844 L 128.347656 90.242188 Z M 127.550781 91.140625 " fill-opacity="1" fill-rule="nonzero"/><path fill="#000000" d="M 140.667969 90.242188 L 138.660156 88.027344 L 136.757812 85.949219 L 136.757812 85.8125 L 136.6875 85.878906 L 136.617188 85.8125 L 136.617188 85.949219 L 134.714844 88.027344 L 132.707031 90.242188 L 134.714844 92.457031 L 136.617188 94.53125 L 136.617188 94.671875 L 136.6875 94.601562 L 136.757812 94.671875 L 136.757812 94.53125 L 138.660156 92.457031 Z M 137.449219 91.140625 L 136.6875 91.972656 L 135.925781 91.140625 L 135.128906 90.242188 L 135.925781 89.339844 L 136.6875 88.511719 L 137.449219 89.339844 L 138.242188 90.242188 Z M 137.449219 91.140625 " fill-opacity="1" fill-rule="nonzero"/><path fill="#000000" d="M 135.71875 95.398438 L 133.710938 93.183594 L 131.808594 91.105469 L 131.808594 90.96875 L 131.738281 91.035156 L 131.667969 90.96875 L 131.667969 91.105469 L 129.765625 93.183594 L 127.757812 95.398438 L 129.765625 97.613281 L 131.667969 99.6875 L 131.667969 99.828125 L 131.738281 99.757812 L 131.808594 99.828125 L 131.808594 99.6875 L 133.710938 97.613281 Z M 132.5 96.261719 L 131.738281 97.09375 L 130.976562 96.261719 L 130.179688 95.363281 L 130.976562 94.460938 L 131.738281 93.632812 L 132.5 94.460938 L 133.296875 95.363281 Z M 132.5 96.261719 " fill-opacity="1" fill-rule="nonzero"/><path fill="#000000" d="M 75.535156 85.222656 L 73.53125 83.007812 L 71.625 80.929688 L 71.625 80.792969 L 71.558594 80.863281 L 71.488281 80.792969 L 71.488281 80.929688 L 69.585938 83.007812 L 67.578125 85.222656 L 69.585938 87.4375 L 71.488281 89.515625 L 71.488281 89.652344 L 71.558594 89.582031 L 71.625 89.652344 L 71.625 89.515625 L 73.53125 87.4375 Z M 72.316406 86.121094 L 71.558594 86.953125 L 70.796875 86.121094 L 70 85.222656 L 70.796875 84.324219 L 71.558594 83.492188 L 72.316406 84.324219 L 73.113281 85.222656 Z M 72.316406 86.121094 " fill-opacity="1" fill-rule="nonzero"/><path fill="#000000" d="M 70.585938 90.378906 L 68.582031 88.164062 L 66.675781 86.089844 L 66.675781 85.949219 L 66.609375 86.019531 L 66.539062 85.949219 L 66.539062 86.089844 L 64.636719 88.164062 L 62.628906 90.378906 L 64.636719 92.59375 L 66.539062 94.671875 L 66.539062 94.808594 L 66.609375 94.738281 L 66.675781 94.808594 L 66.675781 94.671875 L 68.582031 92.59375 Z M 67.371094 91.277344 L 66.609375 92.109375 L 65.847656 91.277344 L 65.050781 90.378906 L 65.847656 89.480469 L 66.609375 88.648438 L 67.371094 89.480469 L 68.164062 90.378906 Z M 67.371094 91.277344 " fill-opacity="1" fill-rule="nonzero"/><path fill="#000000" d="M 80.484375 90.378906 L 78.476562 88.164062 L 76.574219 86.089844 L 76.574219 85.949219 L 76.503906 86.019531 L 76.4375 85.949219 L 76.4375 86.089844 L 74.53125 88.164062 L 72.527344 90.378906 L 74.53125 92.59375 L 76.4375 94.671875 L 76.4375 94.808594 L 76.503906 94.738281 L 76.574219 94.808594 L 76.574219 94.671875 L 78.476562 92.59375 Z M 77.300781 91.277344 L 76.539062 92.109375 L 75.777344 91.277344 L 74.984375 90.378906 L 75.777344 89.480469 L 76.539062 88.648438 L 77.300781 89.480469 L 78.097656 90.378906 Z M 77.300781 91.277344 " fill-opacity="1" fill-rule="nonzero"/><path fill="#000000" d="M 75.535156 95.535156 L 73.53125 93.320312 L 71.625 91.246094 L 71.625 91.105469 L 71.558594 91.175781 L 71.488281 91.105469 L 71.488281 91.246094 L 69.585938 93.320312 L 67.578125 95.535156 L 69.585938 97.75 L 71.488281 99.828125 L 71.488281 99.964844 L 71.558594 99.894531 L 71.625 99.964844 L 71.625 99.828125 L 73.53125 97.75 Z M 72.316406 96.402344 L 71.558594 97.230469 L 70.796875 96.402344 L 70 95.5 L 70.796875 94.601562 L 71.558594 93.769531 L 72.316406 94.601562 L 73.113281 95.5 Z M 72.316406 96.402344 " fill-opacity="1" fill-rule="nonzero"/><path fill="#000000" d="M 163.808594 94.851562 L 159.773438 90.8125 L 163.808594 86.777344 L 167.847656 90.8125 Z M 163.808594 94.851562 " fill-opacity="1" fill-rule="nonzero"/><path fill="#000000" d="M 149.835938 85.84375 C 149.421875 87.644531 150.632812 89.515625 152.570312 90 C 154.507812 90.484375 160.253906 89.203125 160.253906 89.203125 C 160.253906 89.203125 160.253906 89.203125 154.371094 83.699219 C 152.953125 82.316406 150.289062 84.046875 149.835938 85.84375 Z M 149.835938 85.84375 " fill-opacity="1" fill-rule="nonzero"/><path fill="#000000" d="M 161.085938 88.441406 L 160.875 88.683594 L 154.714844 83.042969 L 154.960938 82.765625 Z M 161.085938 88.441406 " fill-opacity="1" fill-rule="nonzero"/><path fill="#000000" d="M 157.589844 77.886719 C 159.355469 77.332031 161.292969 78.441406 161.914062 80.34375 C 162.539062 82.246094 161.671875 88.128906 161.671875 88.128906 C 161.671875 88.128906 161.671875 88.128906 155.753906 82.628906 C 154.335938 81.277344 155.824219 78.441406 157.589844 77.886719 Z M 157.589844 77.886719 " fill-opacity="1" fill-rule="nonzero"/><g clip-path="url(#fb7bbb69d7)"><path fill="#000000" d="M 177.382812 85.601562 C 177.800781 87.402344 176.589844 89.273438 174.648438 89.757812 C 172.710938 90.242188 166.96875 88.960938 166.96875 88.960938 C 166.96875 88.960938 166.96875 88.960938 172.851562 83.457031 C 174.269531 82.109375 176.933594 83.804688 177.382812 85.601562 Z M 177.382812 85.601562 " fill-opacity="1" fill-rule="nonzero"/></g><path fill="#000000" d="M 166.136719 88.199219 L 166.378906 88.476562 L 172.503906 82.800781 L 172.261719 82.558594 Z M 166.136719 88.199219 " fill-opacity="1" fill-rule="nonzero"/><path fill="#000000" d="M 169.632812 77.679688 C 167.867188 77.125 165.929688 78.230469 165.304688 80.136719 C 164.683594 82.039062 165.546875 87.921875 165.546875 87.921875 C 165.546875 87.921875 165.546875 87.921875 171.464844 82.417969 C 172.886719 81.035156 171.398438 78.230469 169.632812 77.679688 Z M 169.632812 77.679688 " fill-opacity="1" fill-rule="nonzero"/><path fill="#000000" d="M 149.699219 95.984375 C 149.285156 94.1875 150.496094 92.316406 152.433594 91.832031 C 154.371094 91.347656 160.117188 92.628906 160.117188 92.628906 C 160.117188 92.628906 160.117188 92.628906 154.230469 98.132812 C 152.8125 99.480469 150.113281 97.785156 149.699219 95.984375 Z M 149.699219 95.984375 " fill-opacity="1" fill-rule="nonzero"/><path fill="#000000" d="M 160.945312 93.390625 L 160.703125 93.113281 L 154.578125 98.789062 L 154.820312 99.03125 Z M 160.945312 93.390625 " fill-opacity="1" fill-rule="nonzero"/><path fill="#000000" d="M 157.449219 103.910156 C 159.214844 104.464844 161.152344 103.355469 161.777344 101.453125 C 162.398438 99.550781 161.535156 93.667969 161.535156 93.667969 C 161.535156 93.667969 161.535156 93.667969 155.617188 99.167969 C 154.199219 100.554688 155.6875 103.355469 157.449219 103.910156 Z M 157.449219 103.910156 " fill-opacity="1" fill-rule="nonzero"/><g clip-path="url(#f15cc51967)"><path fill="#000000" d="M 177.246094 96.191406 C 177.660156 94.394531 176.449219 92.523438 174.511719 92.039062 C 172.574219 91.554688 166.828125 92.835938 166.828125 92.835938 C 166.828125 92.835938 166.828125 92.835938 172.710938 98.339844 C 174.097656 99.6875 176.796875 97.992188 177.246094 96.191406 Z M 177.246094 96.191406 " fill-opacity="1" fill-rule="nonzero"/></g><path fill="#000000" d="M 165.964844 93.597656 L 166.207031 93.355469 L 172.332031 98.996094 L 172.125 99.238281 Z M 165.964844 93.597656 " fill-opacity="1" fill-rule="nonzero"/><path fill="#000000" d="M 169.492188 104.152344 C 167.730469 104.707031 165.789062 103.597656 165.167969 101.695312 C 164.546875 99.792969 165.410156 93.910156 165.410156 93.910156 C 165.410156 93.910156 165.410156 93.910156 171.328125 99.410156 C 172.746094 100.761719 171.257812 103.5625 169.492188 104.152344 Z M 169.492188 104.152344 " fill-opacity="1" fill-rule="nonzero"/><path fill="#000000" d="M 89.898438 144.296875 C 89.519531 145.921875 90.625 147.585938 92.355469 148 C 94.085938 148.449219 99.242188 147.273438 99.242188 147.273438 C 99.242188 147.273438 99.242188 147.273438 93.980469 142.359375 C 92.703125 141.183594 90.277344 142.703125 89.898438 144.296875 Z M 89.898438 144.296875 " fill-opacity="1" fill-rule="nonzero"/><path fill="#000000" d="M 99.96875 146.613281 L 99.761719 146.859375 L 94.257812 141.804688 L 94.5 141.5625 Z M 99.96875 146.613281 " fill-opacity="1" fill-rule="nonzero"/><path fill="#000000" d="M 96.820312 137.203125 C 98.378906 136.683594 100.105469 137.6875 100.660156 139.382812 C 101.214844 141.113281 100.453125 146.339844 100.453125 146.339844 C 100.453125 146.339844 100.453125 146.339844 95.191406 141.425781 C 93.914062 140.214844 95.261719 137.722656 96.820312 137.203125 Z M 96.820312 137.203125 " fill-opacity="1" fill-rule="nonzero"/><path fill="#000000" d="M 114.503906 144.125 C 114.882812 145.75 113.777344 147.410156 112.046875 147.828125 C 110.316406 148.277344 105.160156 147.101562 105.160156 147.101562 C 105.160156 147.101562 105.160156 147.101562 110.421875 142.183594 C 111.734375 140.972656 114.125 142.496094 114.503906 144.125 Z M 114.503906 144.125 " fill-opacity="1" fill-rule="nonzero"/><path fill="#000000" d="M 104.46875 146.441406 L 104.675781 146.648438 L 110.144531 141.597656 L 109.9375 141.390625 Z M 104.46875 146.441406 " fill-opacity="1" fill-rule="nonzero"/><path fill="#000000" d="M 107.582031 136.996094 C 106.023438 136.476562 104.292969 137.480469 103.742188 139.175781 C 103.1875 140.90625 103.949219 146.128906 103.949219 146.128906 C 103.949219 146.128906 103.949219 146.128906 109.207031 141.214844 C 110.488281 140.039062 109.175781 137.511719 107.582031 136.996094 Z M 107.582031 136.996094 " fill-opacity="1" fill-rule="nonzero"/><path fill="#000000" d="M 89.761719 153.363281 C 89.378906 151.738281 90.488281 150.074219 92.21875 149.660156 C 93.949219 149.210938 99.105469 150.386719 99.105469 150.386719 C 99.105469 150.386719 99.105469 150.386719 93.84375 155.300781 C 92.5625 156.476562 90.175781 154.988281 89.761719 153.363281 Z M 89.761719 153.363281 " fill-opacity="1" fill-rule="nonzero"/><path fill="#000000" d="M 99.832031 151.042969 L 99.621094 150.800781 L 94.15625 155.855469 L 94.363281 156.097656 Z M 99.832031 151.042969 " fill-opacity="1" fill-rule="nonzero"/><path fill="#000000" d="M 96.679688 160.457031 C 98.238281 160.976562 99.96875 159.972656 100.523438 158.277344 C 101.078125 156.546875 100.316406 151.320312 100.316406 151.320312 C 100.316406 151.320312 100.316406 151.320312 95.054688 156.234375 C 93.773438 157.445312 95.125 159.972656 96.679688 160.457031 Z M 96.679688 160.457031 " fill-opacity="1" fill-rule="nonzero"/><path fill="#000000" d="M 114.367188 153.535156 C 114.746094 151.910156 113.636719 150.25 111.910156 149.832031 C 110.179688 149.382812 105.019531 150.558594 105.019531 150.558594 C 105.019531 150.558594 105.019531 150.558594 110.28125 155.472656 C 111.597656 156.6875 113.984375 155.164062 114.367188 153.535156 Z M 114.367188 153.535156 " fill-opacity="1" fill-rule="nonzero"/><path fill="#000000" d="M 104.328125 151.253906 L 104.535156 151.011719 L 110.003906 156.0625 L 109.796875 156.269531 Z M 104.328125 151.253906 " fill-opacity="1" fill-rule="nonzero"/><path fill="#000000" d="M 107.445312 160.664062 C 105.886719 161.183594 104.15625 160.179688 103.601562 158.484375 C 103.050781 156.753906 103.808594 151.53125 103.808594 151.53125 C 103.808594 151.53125 103.808594 151.53125 109.070312 156.445312 C 110.351562 157.621094 109.035156 160.144531 107.445312 160.664062 Z M 107.445312 160.664062 " fill-opacity="1" fill-rule="nonzero"/><path fill="#000000" d="M 106.476562 148.65625 L 104.46875 146.441406 L 102.5625 144.367188 L 102.5625 144.226562 L 102.496094 144.296875 L 102.425781 144.226562 L 102.425781 144.367188 L 100.523438 146.441406 L 98.515625 148.65625 L 100.523438 150.871094 L 102.425781 152.949219 L 102.425781 153.085938 L 102.496094 153.015625 L 102.5625 153.085938 L 102.5625 152.949219 L 104.46875 150.871094 Z M 103.257812 149.523438 L 102.496094 150.351562 L 101.734375 149.523438 L 100.9375 148.621094 L 101.734375 147.722656 L 102.496094 146.890625 L 103.257812 147.722656 L 104.050781 148.621094 Z M 103.257812 149.523438 " fill-opacity="1" fill-rule="nonzero"/><path fill="#000000" d="M 124.160156 113.082031 L 124.609375 109.273438 L 125.023438 105.675781 L 125.164062 105.570312 L 125.058594 105.570312 L 125.058594 105.46875 L 124.921875 105.570312 L 121.320312 105.503906 L 117.480469 105.433594 L 117.03125 109.238281 L 116.613281 112.839844 L 116.476562 112.941406 L 116.582031 112.941406 L 116.582031 113.046875 L 116.71875 112.941406 L 120.316406 113.011719 Z M 120.558594 110.726562 L 119.105469 110.691406 L 119.28125 109.273438 L 119.453125 107.75 L 121.011719 107.785156 L 122.464844 107.820312 L 122.289062 109.238281 L 122.117188 110.761719 Z M 120.558594 110.726562 " fill-opacity="1" fill-rule="nonzero"/><path fill="#000000" d="M 85.988281 75.046875 L 86.4375 71.242188 L 86.851562 67.640625 L 86.992188 67.539062 L 86.886719 67.539062 L 86.886719 67.433594 L 86.75 67.539062 L 83.148438 67.46875 L 79.308594 67.398438 L 78.859375 71.207031 L 78.445312 74.804688 L 78.304688 74.910156 L 78.410156 74.910156 L 78.410156 75.015625 L 78.546875 74.910156 L 82.144531 74.980469 Z M 82.421875 72.695312 L 80.96875 72.660156 L 81.144531 71.242188 L 81.316406 69.71875 L 82.875 69.753906 L 84.328125 69.789062 L 84.152344 71.207031 L 83.980469 72.730469 Z M 82.421875 72.695312 " fill-opacity="1" fill-rule="nonzero"/><path fill="#000000" d="M 124.644531 68.921875 L 120.871094 68.265625 L 117.308594 67.640625 L 117.203125 67.503906 L 117.203125 67.609375 L 117.097656 67.574219 L 117.203125 67.710938 L 116.925781 71.3125 L 116.648438 75.117188 L 120.421875 75.773438 L 123.984375 76.398438 L 124.089844 76.535156 L 124.089844 76.433594 L 124.195312 76.46875 L 124.089844 76.328125 L 124.367188 72.730469 Z M 122.082031 72.347656 L 121.980469 73.769531 L 120.558594 73.527344 L 119.039062 73.25 L 119.140625 71.691406 L 119.246094 70.273438 L 120.664062 70.515625 L 122.1875 70.792969 Z M 122.082031 72.347656 " fill-opacity="1" fill-rule="nonzero"/><path fill="#000000" d="M 122.601562 116.472656 L 121.183594 116.4375 L 121.355469 115.019531 L 121.527344 113.496094 L 123.085938 113.53125 L 124.503906 113.566406 L 124.332031 114.984375 L 124.160156 116.507812 Z M 122.601562 116.472656 " fill-opacity="1" fill-rule="nonzero"/><path fill="#000000" d="M 126.0625 113.425781 L 124.644531 113.394531 L 124.78125 111.9375 L 124.988281 110.417969 L 126.511719 110.449219 L 127.964844 110.484375 L 127.792969 111.90625 L 127.621094 113.425781 Z M 126.0625 113.425781 " fill-opacity="1" fill-rule="nonzero"/><path fill="#000000" d="M 126.0625 116.820312 L 124.644531 116.785156 L 124.78125 115.332031 L 124.988281 113.808594 L 126.511719 113.84375 L 127.964844 113.878906 L 127.792969 115.296875 L 127.621094 116.820312 Z M 126.0625 116.820312 " fill-opacity="1" fill-rule="nonzero"/><path fill="#000000" d="M 74.257812 66.949219 L 75.8125 66.949219 L 77.265625 66.984375 L 77.09375 68.402344 L 76.921875 69.960938 L 75.363281 69.925781 L 73.945312 69.890625 L 74.082031 68.472656 Z M 74.257812 66.949219 " fill-opacity="1" fill-rule="nonzero"/><path fill="#000000" d="M 77.785156 63.90625 L 79.308594 63.941406 L 80.761719 63.972656 L 80.589844 65.394531 L 80.417969 66.949219 L 78.859375 66.914062 L 77.441406 66.882812 L 77.613281 65.460938 Z M 77.785156 63.90625 " fill-opacity="1" fill-rule="nonzero"/><path fill="#000000" d="M 74.394531 63.457031 L 75.953125 63.488281 L 77.40625 63.523438 L 77.230469 64.941406 L 77.058594 66.5 L 75.5 66.464844 L 74.082031 66.429688 L 74.222656 65.011719 Z M 74.394531 63.457031 " fill-opacity="1" fill-rule="nonzero"/><path fill="#000000" d="M 128.691406 69.753906 L 128.726562 71.171875 L 127.273438 71.070312 L 125.75 70.929688 L 125.714844 69.371094 L 125.714844 67.953125 L 127.136719 68.058594 L 128.691406 68.195312 Z M 128.691406 69.753906 " fill-opacity="1" fill-rule="nonzero"/><path fill="#000000" d="M 125.542969 66.398438 L 125.542969 67.816406 L 124.125 67.710938 L 122.566406 67.574219 L 122.566406 66.015625 L 122.53125 64.597656 L 123.984375 64.699219 L 125.507812 64.839844 Z M 125.542969 66.398438 " fill-opacity="1" fill-rule="nonzero"/><path fill="#000000" d="M 128.933594 66.292969 L 128.933594 67.710938 L 127.515625 67.609375 L 125.957031 67.46875 L 125.957031 65.914062 L 125.925781 64.492188 L 127.378906 64.597656 L 128.898438 64.734375 Z M 128.933594 66.292969 " fill-opacity="1" fill-rule="nonzero"/><path fill="#000000" d="M 85.78125 105.328125 L 82.007812 104.671875 L 78.445312 104.050781 L 78.339844 103.910156 L 78.339844 104.015625 L 78.234375 103.980469 L 78.339844 104.117188 L 78.0625 107.71875 L 77.785156 111.523438 L 81.558594 112.179688 L 85.121094 112.804688 L 85.226562 112.941406 L 85.226562 112.839844 L 85.332031 112.875 L 85.226562 112.734375 L 85.503906 109.136719 Z M 83.253906 108.753906 L 83.148438 110.175781 L 81.730469 109.933594 L 80.207031 109.65625 L 80.3125 108.097656 L 80.417969 106.679688 L 81.835938 106.921875 L 83.359375 107.199219 Z M 83.253906 108.753906 " fill-opacity="1" fill-rule="nonzero"/><path fill="#000000" d="M 77.023438 115.433594 L 77.023438 113.910156 L 76.988281 112.457031 L 78.410156 112.597656 L 79.964844 112.699219 L 80 114.257812 L 80 115.675781 L 78.582031 115.574219 Z M 77.023438 115.433594 " fill-opacity="1" fill-rule="nonzero"/><path fill="#000000" d="M 73.910156 112.042969 L 73.875 110.484375 L 73.875 109.066406 L 75.292969 109.171875 L 76.851562 109.308594 L 76.851562 110.832031 L 76.886719 112.285156 L 75.46875 112.179688 Z M 73.910156 112.042969 " fill-opacity="1" fill-rule="nonzero"/><path fill="#000000" d="M 73.5625 115.398438 L 73.53125 113.878906 L 73.53125 112.421875 L 74.949219 112.5625 L 76.503906 112.664062 L 76.503906 114.222656 L 76.539062 115.640625 L 75.121094 115.539062 Z M 73.5625 115.398438 " fill-opacity="1" fill-rule="nonzero"/><path fill="#000000" d="M 116.304688 43.589844 L 116.371094 42.035156 L 116.40625 42 L 116.371094 42 L 116.371094 41.964844 L 116.335938 42 L 114.78125 42.101562 L 113.152344 42.207031 L 113.085938 43.832031 L 113.015625 45.390625 L 112.980469 45.425781 L 113.015625 45.425781 L 113.015625 45.460938 L 113.050781 45.425781 L 114.609375 45.320312 L 116.234375 45.21875 Z M 115.300781 44.316406 L 114.640625 44.351562 L 114.019531 44.386719 L 114.054688 43.765625 L 114.089844 43.105469 L 114.746094 43.070312 L 115.367188 43.039062 L 115.335938 43.660156 Z M 115.300781 44.316406 " fill-opacity="1" fill-rule="nonzero"/><path fill="#000000" d="M 117.964844 45.738281 L 117.273438 45.703125 L 116.683594 45.703125 L 116.753906 45.078125 L 116.824219 44.421875 L 117.480469 44.457031 L 118.101562 44.457031 L 118.035156 45.078125 Z M 117.964844 45.738281 " fill-opacity="1" fill-rule="nonzero"/><path fill="#000000" d="M 116.441406 47.015625 L 115.785156 46.980469 L 115.160156 46.980469 L 115.230469 46.359375 L 115.300781 45.703125 L 115.992188 45.738281 L 116.582031 45.738281 L 116.511719 46.359375 Z M 116.441406 47.015625 " fill-opacity="1" fill-rule="nonzero"/><path fill="#000000" d="M 117.859375 47.222656 L 117.203125 47.191406 L 116.582031 47.191406 L 116.683594 46.566406 L 116.753906 45.910156 L 117.410156 45.945312 L 118.035156 45.945312 L 117.964844 46.566406 Z M 117.859375 47.222656 " fill-opacity="1" fill-rule="nonzero"/><path fill="#000000" d="M 141.011719 71.726562 L 139.074219 71.761719 L 139.039062 70.238281 L 141.011719 70.203125 L 140.976562 68.265625 L 142.5 68.265625 L 142.5 70.203125 L 142.535156 71.171875 L 145.0625 71.171875 L 145.027344 70.167969 L 145.027344 68.230469 L 146.515625 68.195312 L 146.550781 70.167969 L 148.488281 70.132812 L 148.523438 71.65625 L 146.550781 71.65625 L 145.0625 71.691406 L 145.0625 73.90625 L 142.570312 73.90625 L 142.570312 75.429688 L 142.605469 77.402344 L 141.082031 77.402344 L 141.046875 75.464844 L 139.109375 75.464844 L 139.074219 73.976562 L 141.046875 73.941406 L 142.328125 73.941406 L 142.328125 71.726562 Z M 141.011719 71.726562 " fill-opacity="1" fill-rule="nonzero"/><path fill="#000000" d="M 148.523438 73.835938 L 148.558594 75.359375 L 146.617188 75.394531 L 146.617188 77.332031 L 145.128906 77.367188 L 145.097656 75.394531 L 145.0625 73.90625 L 146.585938 73.871094 Z M 148.523438 73.835938 " fill-opacity="1" fill-rule="nonzero"/><path fill="#000000" d="M 133.640625 64.390625 L 131.703125 64.390625 L 131.703125 62.867188 L 133.640625 62.867188 L 133.605469 60.894531 L 135.128906 60.894531 L 135.164062 62.832031 L 135.164062 63.835938 L 137.691406 63.800781 L 137.691406 62.796875 L 137.65625 60.859375 L 139.179688 60.859375 L 139.179688 62.796875 L 141.152344 62.761719 L 141.152344 64.285156 L 139.214844 64.320312 L 137.691406 64.320312 L 137.726562 66.535156 L 135.199219 66.570312 L 135.199219 68.09375 L 135.234375 70.03125 L 133.710938 70.03125 L 133.710938 68.09375 L 131.738281 68.128906 L 131.738281 66.605469 L 133.675781 66.570312 L 134.992188 66.570312 L 134.957031 64.355469 Z M 133.640625 64.390625 " fill-opacity="1" fill-rule="nonzero"/><path fill="#000000" d="M 141.1875 66.5 L 141.1875 68.023438 L 139.246094 68.023438 L 139.28125 69.996094 L 137.757812 69.996094 L 137.726562 68.058594 L 137.726562 66.535156 L 139.214844 66.5 Z M 141.1875 66.5 " fill-opacity="1" fill-rule="nonzero"/><path fill="#000000" d="M 126.304688 57.019531 L 124.332031 57.054688 L 124.332031 55.53125 L 126.269531 55.496094 L 126.269531 53.558594 L 127.757812 53.523438 L 127.792969 55.496094 L 127.792969 56.464844 L 130.320312 56.429688 L 130.320312 55.460938 L 130.285156 53.523438 L 131.808594 53.488281 L 131.839844 55.425781 L 133.78125 55.425781 L 133.78125 56.914062 L 131.839844 56.949219 L 130.320312 56.984375 L 130.355469 59.164062 L 127.828125 59.199219 L 127.863281 60.722656 L 127.863281 62.660156 L 126.375 62.695312 L 126.339844 60.722656 L 124.402344 60.753906 L 124.367188 59.234375 L 126.304688 59.234375 L 127.621094 59.199219 L 127.585938 56.984375 Z M 126.304688 57.019531 " fill-opacity="1" fill-rule="nonzero"/><path fill="#000000" d="M 133.8125 59.128906 L 133.847656 60.652344 L 131.875 60.6875 L 131.910156 62.625 L 130.386719 62.625 L 130.386719 60.6875 L 130.355469 59.164062 L 131.875 59.164062 Z M 133.8125 59.128906 " fill-opacity="1" fill-rule="nonzero"/><path fill="#000000" d="M 118.933594 49.648438 L 116.996094 49.679688 L 116.960938 48.160156 L 118.933594 48.125 L 118.898438 46.1875 L 120.421875 46.1875 L 120.421875 48.125 L 120.457031 49.09375 L 122.949219 49.09375 L 122.949219 46.152344 L 124.4375 46.117188 L 124.46875 48.089844 L 126.410156 48.054688 L 126.441406 49.578125 L 124.46875 49.578125 L 122.980469 49.613281 L 122.980469 51.828125 L 120.492188 51.828125 L 120.492188 53.351562 L 120.523438 55.289062 L 119.003906 55.324219 L 118.96875 53.382812 L 117.03125 53.382812 L 116.996094 51.894531 L 118.96875 51.863281 L 120.25 51.828125 L 120.25 49.648438 Z M 118.933594 49.648438 " fill-opacity="1" fill-rule="nonzero"/><path fill="#000000" d="M 126.441406 51.757812 L 126.476562 53.28125 L 124.539062 53.316406 L 124.539062 55.253906 L 123.015625 55.289062 L 123.015625 53.316406 L 122.980469 51.828125 L 124.503906 51.792969 Z M 126.441406 51.757812 " fill-opacity="1" fill-rule="nonzero"/><path fill="#000000" d="M 149.285156 78.265625 L 149.179688 79.894531 L 149.074219 81.449219 L 149.042969 81.484375 L 149.074219 81.484375 L 149.074219 81.519531 L 149.109375 81.484375 L 150.667969 81.417969 L 152.292969 81.347656 L 152.398438 79.71875 L 152.503906 78.164062 L 152.535156 78.128906 L 152.503906 78.128906 L 152.503906 78.09375 L 152.46875 78.128906 L 150.910156 78.199219 Z M 150.875 79.203125 L 151.5 79.167969 L 151.464844 79.789062 L 151.429688 80.445312 L 150.773438 80.480469 L 150.148438 80.515625 L 150.183594 79.894531 L 150.21875 79.234375 Z M 150.875 79.203125 " fill-opacity="1" fill-rule="nonzero"/><path fill="#000000" d="M 149.457031 76.5 L 150.042969 76.433594 L 150.078125 77.019531 L 150.113281 77.714844 L 149.457031 77.78125 L 148.832031 77.851562 L 148.800781 77.230469 L 148.800781 76.570312 Z M 149.457031 76.5 " fill-opacity="1" fill-rule="nonzero"/><path fill="#000000" d="M 148.175781 78.023438 L 148.800781 77.921875 L 148.800781 78.542969 L 148.832031 79.203125 L 148.175781 79.304688 L 147.554688 79.375 L 147.554688 78.75 L 147.519531 78.09375 Z M 148.175781 78.023438 " fill-opacity="1" fill-rule="nonzero"/><path fill="#000000" d="M 147.96875 76.570312 L 148.589844 76.5 L 148.589844 77.125 L 148.625 77.78125 L 147.96875 77.851562 L 147.34375 77.921875 L 147.34375 77.332031 L 147.3125 76.640625 Z M 147.96875 76.570312 " fill-opacity="1" fill-rule="nonzero"/><path fill="#000000" d="M 117.582031 136.511719 L 115.957031 136.40625 L 114.398438 136.300781 L 114.367188 136.269531 L 114.367188 136.300781 L 114.332031 136.300781 L 114.367188 136.335938 L 114.433594 137.894531 L 114.503906 139.519531 L 116.128906 139.625 L 117.6875 139.726562 L 117.722656 139.761719 L 117.722656 139.726562 L 117.757812 139.726562 L 117.722656 139.695312 L 117.652344 138.136719 Z M 116.648438 138.101562 L 116.683594 138.726562 L 116.0625 138.691406 L 115.402344 138.65625 L 115.367188 138 L 115.335938 137.375 L 115.957031 137.410156 L 116.613281 137.445312 Z M 116.648438 138.101562 " fill-opacity="1" fill-rule="nonzero"/><path fill="#000000" d="M 119.347656 136.683594 L 119.417969 137.304688 L 118.796875 137.304688 L 118.136719 137.339844 L 118.066406 136.683594 L 118 136.058594 L 118.585938 136.027344 L 119.246094 136.027344 Z M 119.347656 136.683594 " fill-opacity="1" fill-rule="nonzero"/><path fill="#000000" d="M 117.824219 135.402344 L 117.894531 136.027344 L 117.273438 136.027344 L 116.613281 136.058594 L 116.546875 135.402344 L 116.476562 134.78125 L 117.097656 134.78125 L 117.757812 134.746094 Z M 117.824219 135.402344 " fill-opacity="1" fill-rule="nonzero"/><path fill="#000000" d="M 119.28125 135.195312 L 119.347656 135.816406 L 118.726562 135.816406 L 118.066406 135.851562 L 118 135.195312 L 117.894531 134.570312 L 118.519531 134.570312 L 119.175781 134.539062 Z M 119.28125 135.195312 " fill-opacity="1" fill-rule="nonzero"/><path fill="#000000" d="M 142.328125 110.035156 L 140.390625 110 L 140.355469 111.523438 L 142.328125 111.523438 L 142.292969 113.496094 L 143.816406 113.496094 L 143.816406 111.558594 L 143.851562 110.554688 L 146.34375 110.589844 L 146.34375 111.59375 L 146.308594 113.53125 L 147.828125 113.53125 L 147.863281 111.59375 L 149.800781 111.628906 L 149.835938 110.105469 L 147.863281 110.070312 L 146.375 110.070312 L 146.375 107.855469 L 143.851562 107.820312 L 143.886719 106.332031 L 143.917969 104.359375 L 142.398438 104.359375 L 142.363281 106.296875 L 140.425781 106.296875 L 140.390625 107.785156 L 142.363281 107.820312 L 143.644531 107.820312 L 143.644531 110.035156 Z M 142.328125 110.035156 " fill-opacity="1" fill-rule="nonzero"/><path fill="#000000" d="M 149.835938 107.890625 L 149.871094 106.402344 L 147.933594 106.367188 L 147.933594 104.429688 L 146.410156 104.394531 L 146.410156 106.332031 L 146.375 107.855469 L 147.898438 107.890625 Z M 149.835938 107.890625 " fill-opacity="1" fill-rule="nonzero"/><path fill="#000000" d="M 134.957031 117.371094 L 133.019531 117.371094 L 133.019531 118.859375 L 134.957031 118.894531 L 134.921875 120.832031 L 136.445312 120.867188 L 136.480469 118.929688 L 136.480469 117.925781 L 139.003906 117.960938 L 138.972656 118.929688 L 138.972656 120.902344 L 140.492188 120.902344 L 140.492188 118.964844 L 142.464844 118.964844 L 142.464844 117.476562 L 140.527344 117.441406 L 139.003906 117.441406 L 139.039062 115.226562 L 136.511719 115.191406 L 136.511719 113.667969 L 136.546875 111.730469 L 135.027344 111.730469 L 135.027344 113.667969 L 133.054688 113.636719 L 133.054688 115.15625 L 134.992188 115.191406 L 136.304688 115.191406 L 136.269531 117.40625 Z M 134.957031 117.371094 " fill-opacity="1" fill-rule="nonzero"/><path fill="#000000" d="M 142.5 115.261719 L 142.5 113.738281 L 140.5625 113.738281 L 140.597656 111.765625 L 139.074219 111.765625 L 139.039062 113.703125 L 139.039062 115.226562 L 140.527344 115.226562 Z M 142.5 115.261719 " fill-opacity="1" fill-rule="nonzero"/><path fill="#000000" d="M 127.621094 124.742188 L 125.648438 124.710938 L 125.648438 126.230469 L 127.585938 126.265625 L 127.585938 128.203125 L 129.074219 128.238281 L 129.109375 126.265625 L 129.109375 125.296875 L 131.632812 125.332031 L 131.632812 126.300781 L 131.597656 128.238281 L 133.121094 128.273438 L 133.15625 126.335938 L 135.09375 126.335938 L 135.09375 124.8125 L 133.15625 124.8125 L 131.632812 124.777344 L 131.667969 122.597656 L 129.140625 122.5625 L 129.175781 121.039062 L 129.175781 119.101562 L 127.65625 119.066406 L 127.65625 121.007812 L 125.714844 121.007812 L 125.683594 122.527344 L 127.621094 122.527344 L 128.933594 122.5625 L 128.898438 124.742188 Z M 127.621094 124.742188 " fill-opacity="1" fill-rule="nonzero"/><path fill="#000000" d="M 135.128906 122.632812 L 135.164062 121.109375 L 133.191406 121.074219 L 133.226562 119.136719 L 131.703125 119.101562 L 131.667969 121.074219 L 131.667969 122.597656 L 133.191406 122.597656 Z M 135.128906 122.632812 " fill-opacity="1" fill-rule="nonzero"/><path fill="#000000" d="M 120.25 132.113281 L 118.308594 132.082031 L 118.277344 133.601562 L 120.214844 133.601562 L 120.214844 135.574219 L 121.738281 135.574219 L 121.738281 133.636719 L 121.769531 132.632812 L 124.261719 132.667969 L 124.261719 133.671875 L 124.226562 135.609375 L 125.75 135.644531 L 125.785156 133.671875 L 127.722656 133.707031 L 127.757812 132.183594 L 125.785156 132.148438 L 124.296875 132.148438 L 124.296875 129.933594 L 121.769531 129.898438 L 121.804688 128.410156 L 121.839844 126.4375 L 120.316406 126.4375 L 120.28125 128.378906 L 118.34375 128.378906 L 118.308594 129.867188 L 120.28125 129.898438 L 121.5625 129.898438 L 121.5625 132.113281 Z M 120.25 132.113281 " fill-opacity="1" fill-rule="nonzero"/><path fill="#000000" d="M 127.757812 129.96875 L 127.792969 128.480469 L 125.855469 128.445312 L 125.855469 126.507812 L 124.332031 126.472656 L 124.332031 128.410156 L 124.296875 129.933594 L 125.820312 129.96875 Z M 127.757812 129.96875 " fill-opacity="1" fill-rule="nonzero"/><path fill="#000000" d="M 152.257812 103.5625 L 153.816406 103.632812 L 153.851562 103.667969 L 153.851562 103.632812 L 153.886719 103.632812 L 153.851562 103.597656 L 153.746094 102.042969 L 153.644531 100.414062 L 152.015625 100.347656 L 150.460938 100.277344 L 150.425781 100.242188 L 150.425781 100.277344 L 150.390625 100.277344 L 150.425781 100.3125 L 150.53125 101.867188 L 150.632812 103.496094 Z M 151.53125 102.5625 L 151.5 101.902344 L 151.464844 101.28125 L 152.085938 101.316406 L 152.746094 101.347656 L 152.777344 102.007812 L 152.8125 102.628906 L 152.191406 102.59375 Z M 151.53125 102.5625 " fill-opacity="1" fill-rule="nonzero"/><path fill="#000000" d="M 150.113281 105.191406 L 150.113281 104.5 L 150.148438 103.910156 L 150.738281 103.980469 L 151.394531 104.050781 L 151.394531 104.707031 L 151.359375 105.328125 L 150.773438 105.261719 Z M 150.113281 105.191406 " fill-opacity="1" fill-rule="nonzero"/><path fill="#000000" d="M 148.832031 103.667969 L 148.867188 103.011719 L 148.867188 102.386719 L 149.492188 102.457031 L 150.148438 102.5625 L 150.113281 103.21875 L 150.113281 103.804688 L 149.492188 103.738281 Z M 148.832031 103.667969 " fill-opacity="1" fill-rule="nonzero"/><path fill="#000000" d="M 148.625 105.085938 L 148.625 104.429688 L 148.660156 103.804688 L 149.285156 103.910156 L 149.941406 103.980469 L 149.90625 104.636719 L 149.90625 105.261719 L 149.285156 105.191406 Z M 148.625 105.085938 " fill-opacity="1" fill-rule="nonzero"/><path fill="#000000" d="M 86.816406 139.070312 L 86.75 140.628906 L 86.714844 140.664062 L 86.75 140.664062 L 86.75 140.699219 L 86.785156 140.664062 L 88.339844 140.558594 L 89.96875 140.457031 L 90.035156 138.828125 L 90.105469 137.269531 L 90.140625 137.238281 L 90.105469 137.238281 L 90.105469 137.203125 L 90.070312 137.238281 L 88.515625 137.339844 L 86.886719 137.445312 Z M 87.820312 138.34375 L 88.480469 138.308594 L 89.101562 138.273438 L 89.066406 138.898438 L 89.03125 139.554688 L 88.375 139.589844 L 87.753906 139.625 L 87.789062 139 Z M 87.820312 138.34375 " fill-opacity="1" fill-rule="nonzero"/><path fill="#000000" d="M 85.191406 136.925781 L 85.847656 136.925781 L 86.472656 136.960938 L 86.402344 137.582031 L 86.300781 138.242188 L 85.640625 138.207031 L 85.054688 138.207031 L 85.121094 137.582031 Z M 85.191406 136.925781 " fill-opacity="1" fill-rule="nonzero"/><path fill="#000000" d="M 86.714844 135.644531 L 87.371094 135.679688 L 87.996094 135.679688 L 87.925781 136.300781 L 87.820312 136.960938 L 87.164062 136.925781 L 86.542969 136.925781 L 86.644531 136.300781 Z M 86.714844 135.644531 " fill-opacity="1" fill-rule="nonzero"/><path fill="#000000" d="M 85.261719 135.4375 L 85.953125 135.472656 L 86.542969 135.472656 L 86.472656 136.09375 L 86.402344 136.753906 L 85.746094 136.71875 L 85.121094 136.71875 L 85.191406 136.09375 Z M 85.261719 135.4375 " fill-opacity="1" fill-rule="nonzero"/><path fill="#000000" d="M 62.144531 110.9375 L 64.082031 110.902344 L 64.082031 112.421875 L 62.144531 112.421875 L 62.179688 114.394531 L 60.65625 114.394531 L 60.621094 112.457031 L 60.621094 111.453125 L 58.09375 111.488281 L 58.128906 112.492188 L 58.128906 114.429688 L 56.605469 114.429688 L 56.605469 112.492188 L 54.632812 112.527344 L 54.632812 111.003906 L 56.570312 110.96875 L 58.09375 110.96875 L 58.058594 108.753906 L 60.585938 108.722656 L 60.585938 107.234375 L 60.550781 105.261719 L 62.074219 105.261719 L 62.074219 107.199219 L 64.046875 107.199219 L 64.046875 108.6875 L 62.109375 108.722656 L 60.792969 108.722656 L 60.828125 110.9375 Z M 62.144531 110.9375 " fill-opacity="1" fill-rule="nonzero"/><path fill="#000000" d="M 54.597656 108.789062 L 54.597656 107.300781 L 56.539062 107.265625 L 56.503906 105.328125 L 58.027344 105.292969 L 58.058594 107.234375 L 58.058594 108.753906 L 56.570312 108.789062 Z M 54.597656 108.789062 " fill-opacity="1" fill-rule="nonzero"/><path fill="#000000" d="M 69.480469 118.273438 L 71.453125 118.273438 L 71.453125 119.761719 L 69.515625 119.796875 L 69.515625 121.734375 L 68.027344 121.765625 L 67.992188 119.828125 L 67.992188 118.824219 L 65.464844 118.859375 L 65.464844 119.828125 L 65.5 121.800781 L 63.976562 121.800781 L 63.941406 119.863281 L 62.003906 119.863281 L 62.003906 118.375 L 63.941406 118.339844 L 65.464844 118.339844 L 65.429688 116.125 L 67.957031 116.09375 L 67.921875 114.570312 L 67.921875 112.632812 L 69.410156 112.632812 L 69.445312 114.570312 L 71.382812 114.535156 L 71.417969 116.058594 L 69.480469 116.09375 L 68.164062 116.09375 L 68.199219 118.308594 Z M 69.480469 118.273438 " fill-opacity="1" fill-rule="nonzero"/><path fill="#000000" d="M 61.96875 116.160156 L 61.9375 114.636719 L 63.910156 114.636719 L 63.875 112.664062 L 65.398438 112.664062 L 65.398438 114.605469 L 65.429688 116.125 L 63.910156 116.125 Z M 61.96875 116.160156 " fill-opacity="1" fill-rule="nonzero"/><path fill="#000000" d="M 76.851562 125.644531 L 78.789062 125.609375 L 78.824219 127.132812 L 76.851562 127.167969 L 76.886719 129.105469 L 75.363281 129.140625 L 75.363281 127.167969 L 75.328125 126.195312 L 72.835938 126.230469 L 72.835938 127.199219 L 72.871094 129.140625 L 71.347656 129.171875 L 71.316406 127.234375 L 69.375 127.234375 L 69.34375 125.710938 L 71.316406 125.710938 L 72.800781 125.679688 L 72.800781 123.496094 L 75.292969 123.464844 L 75.292969 121.941406 L 75.257812 120.003906 L 76.78125 119.96875 L 76.816406 121.941406 L 78.753906 121.90625 L 78.789062 123.429688 L 76.816406 123.429688 L 75.535156 123.464844 L 75.535156 125.644531 Z M 76.851562 125.644531 " fill-opacity="1" fill-rule="nonzero"/><path fill="#000000" d="M 69.34375 123.53125 L 69.308594 122.011719 L 71.246094 121.976562 L 71.246094 120.039062 L 72.769531 120.003906 L 72.769531 121.976562 L 72.800781 123.496094 L 71.28125 123.496094 Z M 69.34375 123.53125 " fill-opacity="1" fill-rule="nonzero"/><path fill="#000000" d="M 84.222656 133.015625 L 86.160156 132.980469 L 86.160156 134.503906 L 84.222656 134.503906 L 84.257812 136.476562 L 82.734375 136.476562 L 82.699219 134.539062 L 82.699219 133.535156 L 80.171875 133.570312 L 80.207031 134.570312 L 80.207031 136.511719 L 78.6875 136.542969 L 78.6875 134.570312 L 76.714844 134.605469 L 76.714844 133.082031 L 78.652344 133.050781 L 80.171875 133.050781 L 80.140625 130.835938 L 82.664062 130.800781 L 82.664062 129.3125 L 82.632812 127.339844 L 84.152344 127.339844 L 84.152344 129.277344 L 86.125 129.277344 L 86.125 130.765625 L 84.1875 130.800781 L 82.875 130.800781 L 82.90625 133.015625 Z M 84.222656 133.015625 " fill-opacity="1" fill-rule="nonzero"/><path fill="#000000" d="M 76.679688 130.867188 L 76.679688 129.382812 L 78.617188 129.347656 L 78.582031 127.410156 L 80.105469 127.375 L 80.140625 129.3125 L 80.140625 130.835938 L 78.652344 130.867188 Z M 76.679688 130.867188 " fill-opacity="1" fill-rule="nonzero"/><path fill="#000000" d="M 53.839844 104.394531 L 53.941406 102.769531 L 54.046875 101.210938 L 54.082031 101.175781 L 54.046875 101.175781 L 54.046875 101.140625 L 54.011719 101.175781 L 52.453125 101.246094 L 50.828125 101.316406 L 50.722656 102.941406 L 50.621094 104.5 L 50.585938 104.535156 L 50.621094 104.535156 L 50.621094 104.566406 L 50.652344 104.535156 L 52.210938 104.464844 Z M 52.28125 103.460938 L 51.65625 103.496094 L 51.691406 102.871094 L 51.726562 102.214844 L 52.382812 102.179688 L 53.007812 102.144531 L 52.972656 102.769531 L 52.9375 103.425781 Z M 52.28125 103.460938 " fill-opacity="1" fill-rule="nonzero"/><path fill="#000000" d="M 53.699219 106.160156 L 53.078125 106.230469 L 53.078125 105.605469 L 53.042969 104.949219 L 53.699219 104.878906 L 54.324219 104.808594 L 54.324219 105.398438 L 54.355469 106.089844 Z M 53.699219 106.160156 " fill-opacity="1" fill-rule="nonzero"/><path fill="#000000" d="M 54.980469 104.636719 L 54.355469 104.707031 L 54.355469 104.117188 L 54.324219 103.460938 L 54.980469 103.355469 L 55.601562 103.289062 L 55.601562 103.910156 L 55.636719 104.566406 Z M 54.980469 104.636719 " fill-opacity="1" fill-rule="nonzero"/><path fill="#000000" d="M 55.1875 106.089844 L 54.566406 106.160156 L 54.566406 105.535156 L 54.53125 104.878906 L 55.1875 104.808594 L 55.8125 104.707031 L 55.8125 105.328125 L 55.84375 105.988281 Z M 55.1875 106.089844 " fill-opacity="1" fill-rule="nonzero"/><path fill="#000000" d="M 98.347656 265.886719 L 94.46875 270.132812 L 98.347656 274.382812 L 102.191406 278.664062 L 102.191406 273.570312 L 100.640625 271.871094 L 99.085938 270.132812 L 100.640625 268.433594 L 102.191406 266.699219 L 102.191406 261.636719 Z M 98.347656 265.886719 " fill-opacity="1" fill-rule="nonzero"/><path fill="#000000" d="M 107.398438 265.886719 L 111.238281 270.132812 L 107.398438 274.382812 L 103.519531 278.664062 L 103.519531 273.570312 L 105.070312 271.871094 L 106.621094 270.132812 L 105.070312 268.433594 L 103.519531 266.699219 L 103.519531 261.636719 Z M 107.398438 265.886719 " fill-opacity="1" fill-rule="nonzero"/><path fill="#000000" d="M 81.394531 244.757812 L 100.675781 260.605469 L 100.675781 251.996094 L 81.875 233.34375 Z M 81.394531 244.757812 " fill-opacity="1" fill-rule="nonzero"/><path fill="#000000" d="M 82.28125 224.441406 L 81.949219 232.347656 L 100.675781 251 L 100.675781 242.726562 Z M 82.28125 224.441406 " fill-opacity="1" fill-rule="nonzero"/><path fill="#000000" d="M 100.675781 232.863281 L 82.722656 214.914062 L 82.316406 223.445312 L 100.675781 241.691406 Z M 100.675781 232.863281 " fill-opacity="1" fill-rule="nonzero"/><path fill="#000000" d="M 123.28125 245.421875 L 104 261.269531 L 104 252.664062 L 122.765625 234.007812 Z M 123.28125 245.421875 " fill-opacity="1" fill-rule="nonzero"/><path fill="#000000" d="M 122.394531 225.109375 L 122.726562 233.011719 L 104 251.664062 L 104 243.390625 Z M 122.394531 225.109375 " fill-opacity="1" fill-rule="nonzero"/><path fill="#000000" d="M 104 233.53125 L 121.953125 215.578125 L 122.320312 224.109375 L 104 242.355469 Z M 104 233.53125 " fill-opacity="1" fill-rule="nonzero"/><path fill="#000000" d="M 78.035156 290.558594 L 93.917969 271.277344 L 85.308594 271.277344 L 66.621094 290.078125 Z M 78.035156 290.558594 " fill-opacity="1" fill-rule="nonzero"/><path fill="#000000" d="M 57.71875 289.671875 L 65.660156 290.042969 L 84.3125 271.277344 L 76.003906 271.277344 Z M 57.71875 289.671875 " fill-opacity="1" fill-rule="nonzero"/><path fill="#000000" d="M 66.175781 271.277344 L 48.226562 289.230469 L 56.757812 289.636719 L 75.003906 271.277344 Z M 66.175781 271.277344 " fill-opacity="1" fill-rule="nonzero"/><path fill="#000000" d="M 78.699219 248.671875 L 94.582031 267.953125 L 85.976562 267.953125 L 67.285156 249.191406 Z M 78.699219 248.671875 " fill-opacity="1" fill-rule="nonzero"/><path fill="#000000" d="M 58.382812 249.558594 L 66.324219 249.226562 L 84.976562 267.953125 L 76.667969 267.953125 Z M 58.382812 249.558594 " fill-opacity="1" fill-rule="nonzero"/><path fill="#000000" d="M 66.84375 267.953125 L 48.890625 250.003906 L 57.421875 249.632812 L 75.667969 267.953125 Z M 66.84375 267.953125 " fill-opacity="1" fill-rule="nonzero"/><path fill="#000000" d="M 127.859375 290.558594 L 111.976562 271.277344 L 120.585938 271.277344 L 139.273438 290.078125 Z M 127.859375 290.558594 " fill-opacity="1" fill-rule="nonzero"/><path fill="#000000" d="M 148.175781 289.671875 L 140.234375 290.042969 L 121.617188 271.277344 L 129.894531 271.277344 Z M 148.175781 289.671875 " fill-opacity="1" fill-rule="nonzero"/><path fill="#000000" d="M 139.753906 271.277344 L 157.707031 289.230469 L 149.136719 289.636719 L 130.890625 271.277344 Z M 139.753906 271.277344 " fill-opacity="1" fill-rule="nonzero"/><path fill="#000000" d="M 127.195312 248.671875 L 111.3125 267.953125 L 119.917969 267.953125 L 138.609375 249.191406 Z M 127.195312 248.671875 " fill-opacity="1" fill-rule="nonzero"/><path fill="#000000" d="M 147.511719 249.558594 L 139.570312 249.226562 L 120.953125 267.953125 L 129.226562 267.953125 Z M 147.511719 249.558594 " fill-opacity="1" fill-rule="nonzero"/><path fill="#000000" d="M 139.089844 267.953125 L 157.042969 250.003906 L 148.472656 249.632812 L 130.226562 267.953125 Z M 139.089844 267.953125 " fill-opacity="1" fill-rule="nonzero"/><path fill="#000000" d="M 81.394531 294.917969 L 100.675781 279.070312 L 100.675781 287.679688 L 81.875 306.332031 Z M 81.394531 294.917969 " fill-opacity="1" fill-rule="nonzero"/><path fill="#000000" d="M 82.28125 315.234375 L 81.949219 307.328125 L 100.675781 288.675781 L 100.675781 296.949219 Z M 82.28125 315.234375 " fill-opacity="1" fill-rule="nonzero"/><path fill="#000000" d="M 100.675781 306.8125 L 82.722656 324.761719 L 82.316406 316.230469 L 100.675781 297.984375 Z M 100.675781 306.8125 " fill-opacity="1" fill-rule="nonzero"/><path fill="#000000" d="M 123.28125 294.253906 L 104 278.40625 L 104 287.011719 L 122.765625 305.667969 Z M 123.28125 294.253906 " fill-opacity="1" fill-rule="nonzero"/><path fill="#000000" d="M 122.394531 314.566406 L 122.726562 306.664062 L 104 288.011719 L 104 296.285156 Z M 122.394531 314.566406 " fill-opacity="1" fill-rule="nonzero"/><path fill="#000000" d="M 104 306.148438 L 121.953125 324.097656 L 122.320312 315.566406 L 104 297.320312 Z M 104 306.148438 " fill-opacity="1" fill-rule="nonzero"/><path fill="#000000" d="M 75.667969 243.527344 L 76.816406 242.375 L 98.601562 264.160156 L 97.449219 265.308594 Z M 75.667969 243.527344 " fill-opacity="1" fill-rule="nonzero"/><path fill="#000000" d="M 109.121094 264.660156 L 107.972656 263.511719 L 129.757812 241.726562 L 130.90625 242.878906 Z M 109.121094 264.660156 " fill-opacity="1" fill-rule="nonzero"/><path fill="#000000" d="M 95.230469 275.292969 L 96.378906 276.445312 L 74.597656 298.226562 L 73.449219 297.078125 Z M 95.230469 275.292969 " fill-opacity="1" fill-rule="nonzero"/><path fill="#000000" d="M 131.125 296.164062 L 129.976562 297.3125 L 108.191406 275.53125 L 109.339844 274.382812 Z M 131.125 296.164062 " fill-opacity="1" fill-rule="nonzero"/><path fill="#000000" d="M 97.792969 216.796875 L 93.917969 221.042969 L 97.792969 225.328125 L 101.636719 229.578125 L 101.636719 224.480469 L 100.085938 222.78125 L 98.535156 221.042969 L 100.085938 219.34375 L 101.636719 217.648438 L 101.636719 212.550781 Z M 97.792969 216.796875 " fill-opacity="1" fill-rule="nonzero"/><path fill="#000000" d="M 106.808594 216.796875 L 110.6875 221.042969 L 106.808594 225.328125 L 102.964844 229.578125 L 102.964844 224.480469 L 104.515625 222.78125 L 106.070312 221.042969 L 104.515625 219.34375 L 102.964844 217.648438 L 102.964844 212.550781 Z M 106.808594 216.796875 " fill-opacity="1" fill-rule="nonzero"/><g clip-path="url(#4052157d75)"><path fill="#000000" d="M 97.792969 198.441406 L 93.917969 202.6875 L 97.792969 206.933594 L 101.636719 211.183594 L 101.636719 206.121094 L 100.085938 204.421875 L 98.535156 202.6875 L 100.085938 200.988281 L 101.636719 199.253906 L 101.636719 194.191406 Z M 97.792969 198.441406 " fill-opacity="1" fill-rule="nonzero"/></g><g clip-path="url(#0cd71059f7)"><path fill="#000000" d="M 106.808594 198.441406 L 110.6875 202.6875 L 106.808594 206.933594 L 102.964844 211.183594 L 102.964844 206.121094 L 104.515625 204.421875 L 106.070312 202.6875 L 104.515625 200.988281 L 102.964844 199.253906 L 102.964844 194.191406 Z M 106.808594 198.441406 " fill-opacity="1" fill-rule="nonzero"/></g><path fill="#000000" d="M 119.625 212.21875 L 115.746094 207.96875 L 112.089844 203.941406 L 112.089844 203.683594 L 111.976562 203.796875 L 111.867188 203.683594 L 111.867188 203.941406 L 108.210938 207.96875 L 104.332031 212.21875 L 108.210938 216.464844 L 111.867188 220.492188 L 111.867188 220.75 L 111.976562 220.636719 L 112.089844 220.75 L 112.089844 220.492188 L 115.746094 216.464844 Z M 113.457031 213.953125 L 112.015625 215.542969 L 110.574219 213.953125 L 109.023438 212.253906 L 110.574219 210.554688 L 112.015625 208.964844 L 113.457031 210.554688 L 115.007812 212.253906 Z M 113.457031 213.953125 " fill-opacity="1" fill-rule="nonzero"/><path fill="#000000" d="M 100.160156 212.21875 L 96.28125 207.96875 L 92.660156 203.980469 L 92.660156 203.722656 L 92.550781 203.832031 L 92.4375 203.722656 L 92.4375 203.980469 L 88.78125 208.007812 L 84.902344 212.253906 L 88.78125 216.5 L 92.4375 220.527344 L 92.4375 220.785156 L 92.550781 220.675781 L 92.660156 220.785156 L 92.660156 220.527344 L 96.316406 216.5 Z M 93.992188 213.953125 L 92.550781 215.542969 L 91.109375 213.953125 L 89.558594 212.253906 L 91.109375 210.554688 L 92.550781 208.964844 L 93.992188 210.554688 L 95.542969 212.253906 Z M 93.992188 213.953125 " fill-opacity="1" fill-rule="nonzero"/><g clip-path="url(#0f86f5b331)"><path fill="#000000" d="M 98.460938 332.148438 L 94.582031 336.398438 L 98.460938 340.644531 L 102.300781 344.894531 L 102.300781 339.832031 L 100.75 338.097656 L 99.199219 336.398438 L 100.75 334.660156 L 102.300781 332.960938 L 102.300781 327.902344 Z M 98.460938 332.148438 " fill-opacity="1" fill-rule="nonzero"/></g><g clip-path="url(#0f7b7e8eb0)"><path fill="#000000" d="M 107.472656 332.148438 L 111.351562 336.398438 L 107.472656 340.644531 L 103.628906 344.894531 L 103.628906 339.832031 L 105.183594 338.097656 L 106.734375 336.398438 L 105.183594 334.660156 L 103.628906 332.960938 L 103.628906 327.902344 Z M 107.472656 332.148438 " fill-opacity="1" fill-rule="nonzero"/></g><path fill="#000000" d="M 98.460938 313.792969 L 94.582031 318.039062 L 98.460938 322.289062 L 102.300781 326.535156 L 102.300781 321.476562 L 100.75 319.738281 L 99.199219 318.039062 L 100.75 316.304688 L 102.300781 314.605469 L 102.300781 309.507812 Z M 98.460938 313.792969 " fill-opacity="1" fill-rule="nonzero"/><path fill="#000000" d="M 107.472656 313.792969 L 111.351562 318.039062 L 107.472656 322.289062 L 103.628906 326.535156 L 103.628906 321.476562 L 105.183594 319.738281 L 106.734375 318.039062 L 105.183594 316.304688 L 103.628906 314.605469 L 103.628906 309.507812 Z M 107.472656 313.792969 " fill-opacity="1" fill-rule="nonzero"/><path fill="#000000" d="M 120.289062 327.570312 L 116.410156 323.324219 L 112.753906 319.296875 L 112.753906 319.039062 L 112.644531 319.148438 L 112.53125 319.039062 L 112.53125 319.296875 L 108.875 323.324219 L 104.996094 327.570312 L 108.875 331.816406 L 112.53125 335.84375 L 112.53125 336.101562 L 112.644531 335.992188 L 112.753906 336.101562 L 112.753906 335.84375 L 116.410156 331.816406 Z M 114.121094 329.269531 L 112.679688 330.855469 L 111.238281 329.269531 L 109.6875 327.570312 L 111.238281 325.871094 L 112.679688 324.28125 L 114.121094 325.871094 L 115.671875 327.570312 Z M 114.121094 329.269531 " fill-opacity="1" fill-rule="nonzero"/><path fill="#000000" d="M 100.824219 327.570312 L 96.945312 323.324219 L 93.289062 319.296875 L 93.289062 319.039062 L 93.175781 319.148438 L 93.066406 319.039062 L 93.066406 319.296875 L 89.410156 323.324219 L 85.53125 327.570312 L 89.410156 331.816406 L 93.066406 335.84375 L 93.066406 336.101562 L 93.175781 335.992188 L 93.289062 336.101562 L 93.289062 335.84375 L 96.945312 331.816406 Z M 94.65625 329.269531 L 93.214844 330.855469 L 91.773438 329.269531 L 90.222656 327.570312 L 91.773438 325.871094 L 93.214844 324.28125 L 94.65625 325.871094 L 96.207031 327.570312 Z M 94.65625 329.269531 " fill-opacity="1" fill-rule="nonzero"/><path fill="#000000" d="M 168.269531 260.011719 L 164.390625 255.765625 L 160.734375 251.738281 L 160.734375 251.480469 L 160.625 251.589844 L 160.511719 251.480469 L 160.511719 251.738281 L 156.855469 255.765625 L 152.976562 260.011719 L 156.855469 264.261719 L 160.511719 268.285156 L 160.511719 268.546875 L 160.625 268.433594 L 160.734375 268.546875 L 160.734375 268.285156 L 164.390625 264.261719 Z M 162.101562 261.710938 L 160.660156 263.300781 L 159.21875 261.710938 L 157.667969 260.011719 L 159.21875 258.3125 L 160.660156 256.726562 L 162.101562 258.3125 L 163.652344 260.011719 Z M 162.101562 261.710938 " fill-opacity="1" fill-rule="nonzero"/><path fill="#000000" d="M 158.777344 269.875 L 154.898438 265.628906 L 151.242188 261.601562 L 151.242188 261.34375 L 151.132812 261.453125 L 151.019531 261.34375 L 151.019531 261.601562 L 147.363281 265.628906 L 143.484375 269.875 L 147.363281 274.121094 L 151.019531 278.148438 L 151.019531 278.40625 L 151.132812 278.296875 L 151.242188 278.40625 L 151.242188 278.148438 L 154.898438 274.121094 Z M 152.609375 271.574219 L 151.167969 273.164062 L 149.726562 271.574219 L 148.175781 269.875 L 149.726562 268.175781 L 151.167969 266.585938 L 152.609375 268.175781 L 154.160156 269.875 Z M 152.609375 271.574219 " fill-opacity="1" fill-rule="nonzero"/><g clip-path="url(#e756f4b130)"><path fill="#000000" d="M 177.800781 269.875 L 173.921875 265.628906 L 170.265625 261.601562 L 170.265625 261.34375 L 170.152344 261.453125 L 170.042969 261.34375 L 170.042969 261.601562 L 166.386719 265.628906 L 162.507812 269.875 L 166.386719 274.121094 L 170.042969 278.148438 L 170.042969 278.40625 L 170.152344 278.296875 L 170.265625 278.40625 L 170.265625 278.148438 L 173.921875 274.121094 Z M 171.632812 271.574219 L 170.191406 273.164062 L 168.75 271.574219 L 167.199219 269.875 L 168.75 268.175781 L 170.191406 266.585938 L 171.632812 268.175781 L 173.183594 269.875 Z M 171.632812 271.574219 " fill-opacity="1" fill-rule="nonzero"/></g><path fill="#000000" d="M 168.269531 279.738281 L 164.390625 275.488281 L 160.734375 271.464844 L 160.734375 271.203125 L 160.625 271.316406 L 160.511719 271.203125 L 160.511719 271.464844 L 156.855469 275.488281 L 152.976562 279.738281 L 156.855469 283.984375 L 160.511719 288.011719 L 160.511719 288.269531 L 160.625 288.160156 L 160.734375 288.269531 L 160.734375 288.011719 L 164.390625 283.984375 Z M 162.101562 281.472656 L 160.660156 283.0625 L 159.21875 281.472656 L 157.667969 279.773438 L 159.21875 278.074219 L 160.660156 276.488281 L 162.101562 278.074219 L 163.652344 279.773438 Z M 162.101562 281.472656 " fill-opacity="1" fill-rule="nonzero"/><path fill="#000000" d="M 52.769531 260.273438 L 48.890625 256.023438 L 45.234375 251.996094 L 45.234375 251.738281 L 45.125 251.851562 L 45.011719 251.738281 L 45.011719 251.996094 L 41.355469 256.023438 L 37.476562 260.273438 L 41.355469 264.519531 L 45.011719 268.546875 L 45.011719 268.804688 L 45.125 268.691406 L 45.234375 268.804688 L 45.234375 268.546875 L 48.890625 264.519531 Z M 46.601562 261.96875 L 45.160156 263.558594 L 43.71875 261.96875 L 42.167969 260.273438 L 43.71875 258.574219 L 45.160156 256.984375 L 46.601562 258.574219 L 48.152344 260.273438 Z M 46.601562 261.96875 " fill-opacity="1" fill-rule="nonzero"/><g clip-path="url(#8fc4791fe7)"><path fill="#000000" d="M 43.238281 270.132812 L 39.359375 265.886719 L 35.703125 261.859375 L 35.703125 261.601562 L 35.59375 261.710938 L 35.484375 261.601562 L 35.484375 261.859375 L 31.824219 265.886719 L 28.019531 270.132812 L 31.898438 274.382812 L 35.554688 278.40625 L 35.554688 278.664062 L 35.667969 278.554688 L 35.777344 278.664062 L 35.777344 278.40625 L 39.433594 274.382812 Z M 37.070312 271.871094 L 35.628906 273.457031 L 34.191406 271.871094 L 32.636719 270.171875 L 34.191406 268.472656 L 35.628906 266.882812 L 37.070312 268.472656 L 38.621094 270.171875 Z M 37.070312 271.871094 " fill-opacity="1" fill-rule="nonzero"/></g><path fill="#000000" d="M 62.261719 270.132812 L 58.382812 265.886719 L 54.726562 261.859375 L 54.726562 261.601562 L 54.617188 261.710938 L 54.503906 261.601562 L 54.503906 261.859375 L 50.921875 265.886719 L 47.042969 270.132812 L 50.921875 274.382812 L 54.578125 278.40625 L 54.578125 278.664062 L 54.691406 278.554688 L 54.800781 278.664062 L 54.800781 278.40625 L 58.457031 274.382812 Z M 56.09375 271.871094 L 54.652344 273.457031 L 53.210938 271.871094 L 51.660156 270.171875 L 53.210938 268.472656 L 54.652344 266.882812 L 56.09375 268.433594 L 57.644531 270.132812 Z M 56.09375 271.871094 " fill-opacity="1" fill-rule="nonzero"/><path fill="#000000" d="M 52.769531 280.03125 L 48.890625 275.785156 L 45.269531 271.757812 L 45.269531 271.5 L 45.160156 271.609375 L 45.050781 271.5 L 45.050781 271.757812 L 41.390625 275.785156 L 37.515625 280.03125 L 41.390625 284.28125 L 45.050781 288.304688 L 45.050781 288.566406 L 45.160156 288.453125 L 45.269531 288.566406 L 45.269531 288.304688 L 48.925781 284.28125 Z M 46.601562 281.730469 L 45.160156 283.320312 L 43.71875 281.730469 L 42.167969 280.03125 L 43.71875 278.332031 L 45.160156 276.746094 L 46.601562 278.332031 L 48.152344 280.03125 Z M 46.601562 281.730469 " fill-opacity="1" fill-rule="nonzero"/><path fill="#000000" d="M 146.070312 313.683594 L 146.921875 306.367188 L 147.734375 299.460938 L 147.953125 299.238281 L 147.734375 299.238281 L 147.769531 299.019531 L 147.546875 299.238281 L 140.605469 299.09375 L 133.253906 298.945312 L 132.40625 306.257812 L 131.589844 313.164062 L 131.371094 313.386719 L 131.589844 313.386719 L 131.554688 313.609375 L 131.777344 313.386719 L 138.71875 313.535156 Z M 139.199219 309.175781 L 136.429688 309.101562 L 136.761719 306.367188 L 137.09375 303.414062 L 140.050781 303.488281 L 142.820312 303.5625 L 142.488281 306.292969 L 142.15625 309.25 Z M 139.199219 309.175781 " fill-opacity="1" fill-rule="nonzero"/><path fill="#000000" d="M 72.789062 240.695312 L 73.636719 233.382812 L 74.449219 226.472656 L 74.671875 226.253906 L 74.449219 226.253906 L 74.488281 226.03125 L 74.265625 226.253906 L 67.320312 226.105469 L 59.972656 225.957031 L 59.121094 233.269531 L 58.308594 240.179688 L 58.085938 240.398438 L 58.308594 240.398438 L 58.273438 240.621094 L 58.496094 240.398438 L 65.4375 240.546875 Z M 65.957031 236.1875 L 63.183594 236.113281 L 63.515625 233.382812 L 63.851562 230.425781 L 66.804688 230.5 L 69.574219 230.574219 L 69.242188 233.308594 L 68.910156 236.261719 Z M 65.957031 236.1875 " fill-opacity="1" fill-rule="nonzero"/><path fill="#000000" d="M 146.996094 228.949219 L 139.753906 227.695312 L 132.921875 226.511719 L 132.738281 226.253906 L 132.738281 226.472656 L 132.515625 226.4375 L 132.699219 226.695312 L 132.183594 233.601562 L 131.628906 240.953125 L 138.832031 242.210938 L 145.664062 243.390625 L 145.847656 243.648438 L 145.847656 243.429688 L 146.070312 243.464844 L 145.886719 243.207031 L 146.402344 236.300781 Z M 142.117188 235.5625 L 141.898438 238.292969 L 139.164062 237.8125 L 136.246094 237.296875 L 136.46875 234.34375 L 136.6875 231.609375 L 139.421875 232.089844 L 142.339844 232.605469 Z M 142.117188 235.5625 " fill-opacity="1" fill-rule="nonzero"/><path fill="#000000" d="M 143.117188 320.257812 L 140.347656 320.21875 L 140.679688 317.449219 L 141.011719 314.53125 L 144.003906 314.566406 L 146.734375 314.640625 L 146.441406 317.375 L 146.070312 320.332031 Z M 143.117188 320.257812 " fill-opacity="1" fill-rule="nonzero"/><path fill="#000000" d="M 149.765625 314.347656 L 146.996094 314.308594 L 147.328125 311.578125 L 147.660156 308.621094 L 150.613281 308.695312 L 153.382812 308.730469 L 153.050781 311.464844 L 152.71875 314.421875 Z M 149.765625 314.347656 " fill-opacity="1" fill-rule="nonzero"/><path fill="#000000" d="M 149.765625 320.882812 L 146.996094 320.8125 L 147.328125 318.078125 L 147.660156 315.121094 L 150.613281 315.195312 L 153.382812 315.234375 L 153.050781 317.964844 L 152.71875 320.921875 Z M 149.765625 320.882812 " fill-opacity="1" fill-rule="nonzero"/><path fill="#000000" d="M 50.292969 225.144531 L 53.285156 225.183594 L 56.019531 225.21875 L 55.722656 227.988281 L 55.390625 230.90625 L 52.4375 230.871094 L 49.667969 230.832031 L 49.960938 228.101562 Z M 50.292969 225.144531 " fill-opacity="1" fill-rule="nonzero"/><path fill="#000000" d="M 57.054688 219.34375 L 60.007812 219.417969 L 62.777344 219.457031 L 62.445312 222.191406 L 62.113281 225.144531 L 59.160156 225.070312 L 56.390625 225.035156 L 56.683594 222.300781 Z M 57.054688 219.34375 " fill-opacity="1" fill-rule="nonzero"/><path fill="#000000" d="M 50.589844 218.496094 L 53.542969 218.53125 L 56.316406 218.570312 L 55.984375 221.339844 L 55.648438 224.257812 L 52.695312 224.222656 L 49.925781 224.183594 L 50.257812 221.449219 Z M 50.589844 218.496094 " fill-opacity="1" fill-rule="nonzero"/><path fill="#000000" d="M 154.824219 230.539062 L 154.863281 233.308594 L 152.089844 233.050781 L 149.136719 232.828125 L 149.101562 229.835938 L 149.0625 227.101562 L 151.832031 227.324219 L 154.789062 227.582031 Z M 154.824219 230.539062 " fill-opacity="1" fill-rule="nonzero"/><path fill="#000000" d="M 148.730469 224.109375 L 148.730469 226.84375 L 145.996094 226.621094 L 143.042969 226.363281 L 143.003906 223.410156 L 142.96875 220.636719 L 145.738281 220.898438 L 148.695312 221.117188 Z M 148.730469 224.109375 " fill-opacity="1" fill-rule="nonzero"/><path fill="#000000" d="M 155.230469 223.890625 L 155.269531 226.660156 L 152.496094 226.4375 L 149.542969 226.179688 L 149.507812 223.1875 L 149.46875 220.453125 L 152.238281 220.675781 L 155.195312 220.933594 Z M 155.230469 223.890625 " fill-opacity="1" fill-rule="nonzero"/><path fill="#000000" d="M 72.417969 298.796875 L 65.179688 297.539062 L 58.347656 296.359375 L 58.160156 296.101562 L 58.160156 296.320312 L 57.941406 296.285156 L 58.125 296.542969 L 57.570312 303.449219 L 57.015625 310.800781 L 64.257812 312.058594 L 71.089844 313.238281 L 71.273438 313.496094 L 71.273438 313.277344 L 71.496094 313.3125 L 71.3125 313.054688 L 71.828125 306.148438 Z M 67.542969 305.40625 L 67.320312 308.140625 L 64.589844 307.660156 L 61.671875 307.144531 L 61.890625 304.1875 L 62.113281 301.457031 L 64.847656 301.9375 L 67.765625 302.453125 Z M 67.542969 305.40625 " fill-opacity="1" fill-rule="nonzero"/><path fill="#000000" d="M 55.613281 318.261719 L 55.574219 315.308594 L 55.539062 312.535156 L 58.273438 312.757812 L 61.226562 313.015625 L 61.300781 315.972656 L 61.339844 318.742188 L 58.566406 318.519531 Z M 55.613281 318.261719 " fill-opacity="1" fill-rule="nonzero"/><path fill="#000000" d="M 49.628906 311.722656 L 49.59375 308.769531 L 49.554688 306 L 52.289062 306.21875 L 55.242188 306.480469 L 55.28125 309.433594 L 55.316406 312.203125 L 52.585938 311.984375 Z M 49.628906 311.722656 " fill-opacity="1" fill-rule="nonzero"/><path fill="#000000" d="M 48.964844 318.1875 L 48.925781 315.234375 L 48.890625 312.464844 L 51.625 312.683594 L 54.578125 312.941406 L 54.617188 315.898438 L 54.652344 318.667969 L 51.917969 318.445312 Z M 48.964844 318.1875 " fill-opacity="1" fill-rule="nonzero"/></svg>